0
SECTION
2
HEADER
9
$INSUNITS
70
4
0
ENDSEC
0
SECTION
2
TABLES
0
TABLE
2
LTYPE
0
LTYPE
72
65
70
64
2
CONTINUOUS
3
______
73
0
40
0
0
ENDTAB
0
TABLE
2
LAYER
0
ENDTAB
0
ENDSEC
0
SECTION
2
ENTITIES
0
LINE
8
0
10
91.3169807
20
-108.0124502
11
91.3150193
21
-57.2025058
0
LINE
8
0
10
91.8150058
20
-56.7024865
11
127.8150135
21
-56.7015135
0
LINE
8
0
10
128.315
20
-56.2015135
11
128.315
21
-52.8275
0
LINE
8
0
10
128.815
20
-52.3275
11
146.315
21
-52.3275
0
LINE
8
0
10
146.815
20
-51.8275
11
146.815
21
-50.7525
0
LINE
8
0
10
147.315
20
-50.2525
11
163.843
21
-50.2525
0
LINE
8
0
10
164.343
20
-50.7525
11
164.343
21
-51.8275
0
LINE
8
0
10
164.843
20
-52.3275
11
182.343
21
-52.3275
0
LINE
8
0
10
182.843
20
-52.8275
11
182.843
21
-54.1231216
0
LINE
8
0
10
183.3428784
20
-54.6231216
11
200.8370627
21
-54.6273769
0
LINE
8
0
10
201.3369048
20
-55.1334006
11
201.3240967
21
-56.1964763
0
LINE
8
0
10
221.253
20
-112.909096
11
207.7999328
21
-135.7238041
0
LINE
8
0
10
207.1192353
20
-135.902849
11
193.1849268
21
-127.8578722
0
LINE
8
0
10
193.0084663
20
-127.7963225
11
156.2469813
21
-122.3300338
0
LINE
8
0
10
155.9217904
20
-122.1371567
11
145.7575738
21
-108.7033491
0
LINE
8
0
10
145.3587744
20
-108.5050344
11
91.8170497
21
-108.5124309
0
LINE
8
0
10
201.8240604
20
-56.7025
11
221.068
21
-56.7025
0
LINE
8
0
10
221.568
20
-57.2025
11
221.568
21
-112.2295254
0
LINE
8
0
10
221.5010127
20
-112.4795254
11
221.253
21
-112.909096
0
ARC
8
0
10
91.8150193
20
-57.2024865
40
0.5
50
90.001547
51
180.0022116
0
ARC
8
0
10
127.815
20
-56.2015135
40
0.5
50
270.001547
51
0
0
ARC
8
0
10
128.815
20
-52.8275
40
0.5
50
90
51
180
0
ARC
8
0
10
146.315
20
-51.8275
40
0.5
50
270
51
0
0
ARC
8
0
10
147.315
20
-50.7525
40
0.5
50
90
51
180
0
ARC
8
0
10
163.843
20
-50.7525
40
0.5
50
0
51
90
0
ARC
8
0
10
164.843
20
-51.8275
40
0.5
50
180
51
270
0
ARC
8
0
10
182.343
20
-52.8275
40
0.5
50
0
51
90
0
ARC
8
0
10
183.343
20
-54.1231216
40
0.5
50
180
51
269.9860657
0
ARC
8
0
10
200.8369411
20
-55.1273769
40
0.5
50
359.3097238
51
89.9860657
0
ARC
8
0
10
201.8240604
20
-56.2025
40
0.5
50
179.3097238
51
270
0
ARC
8
0
10
221.068
20
-57.2025
40
0.5
50
0
51
90
0
ARC
8
0
10
221.068
20
-112.2295254
40
0.5
50
329.9999999
51
0
0
ARC
8
0
10
207.3692353
20
-135.4698363
40
0.5
50
239.9999999
51
329.473575
0
ARC
8
0
10
192.9349268
20
-128.2908849
40
0.5
50
59.9999999
51
81.5423124
0
ARC
8
0
10
156.3205208
20
-121.8354714
40
0.5
50
217.1116831
51
261.5423124
0
ARC
8
0
10
145.3588434
20
-109.0050344
40
0.5
50
37.1116831
51
90.0079125
0
ARC
8
0
10
91.8169807
20
-108.0124309
40
0.5
50
180.0022116
51
270.0079125
0
CIRCLE
8
0
10
109.25
20
-73.75
40
1.1
0
CIRCLE
8
0
10
109.25
20
-91.25
40
1.1
0
CIRCLE
8
0
10
183.218
20
-70.4235
40
1.1
0
CIRCLE
8
0
10
151.157
20
-107.365
40
1.1
0
CIRCLE
8
0
10
197.1576078
20
-114.6317481
40
1.1
0
ENDSEC
0
EOF