0
SECTION
2
HEADER
9
$INSUNITS
70
4
0
ENDSEC
0
SECTION
2
TABLES
0
TABLE
2
LTYPE
0
LTYPE
72
65
70
64
2
CONTINUOUS
3
______
73
0
40
0
0
ENDTAB
0
TABLE
2
LAYER
0
ENDTAB
0
ENDSEC
0
SECTION
2
ENTITIES
0
LINE
8
0
10
91.3169807
20
-108.0124502
11
91.3150193
21
-57.2025058
0
LINE
8
0
10
91.8150058
20
-56.7024865
11
127.8150135
21
-56.7015135
0
LINE
8
0
10
128.315
20
-56.2015135
11
128.315
21
-52.8275
0
LINE
8
0
10
128.815
20
-52.3275
11
146.315
21
-52.3275
0
LINE
8
0
10
146.815
20
-51.8275
11
146.815
21
-50.7525
0
LINE
8
0
10
147.315
20
-50.2525
11
163.843
21
-50.2525
0
LINE
8
0
10
164.343
20
-50.7525
11
164.343
21
-51.8275
0
LINE
8
0
10
164.843
20
-52.3275
11
182.343
21
-52.3275
0
LINE
8
0
10
182.843
20
-52.8275
11
182.843
21
-54.1231216
0
LINE
8
0
10
183.3428784
20
-54.6231216
11
200.8370627
21
-54.6273769
0
LINE
8
0
10
201.3369048
20
-55.1334006
11
201.3180363
21
-56.6994871
0
LINE
8
0
10
201.318
20
-56.7055108
11
201.318
21
-101.1109433
0
LINE
8
0
10
201.568
20
-101.543956
11
220.8159905
21
-112.6567884
0
LINE
8
0
10
220.9966879
20
-113.343769
11
207.7999328
21
-135.7238041
0
LINE
8
0
10
207.1192353
20
-135.902849
11
193.1849268
21
-127.8578722
0
LINE
8
0
10
193.0084663
20
-127.7963225
11
156.2469813
21
-122.3300338
0
LINE
8
0
10
155.9217904
20
-122.1371567
11
145.7575738
21
-108.7033491
0
LINE
8
0
10
145.3587744
20
-108.5050344
11
91.8170497
21
-108.5124309
0
ARC
8
0
10
91.8150193
20
-57.2024865
40
0.5
50
90.001547
51
180.0022116
0
ARC
8
0
10
127.815
20
-56.2015135
40
0.5
50
270.001547
51
0
0
ARC
8
0
10
128.815
20
-52.8275
40
0.5
50
90
51
180
0
ARC
8
0
10
146.315
20
-51.8275
40
0.5
50
270
51
0
0
ARC
8
0
10
147.315
20
-50.7525
40
0.5
50
90
51
180
0
ARC
8
0
10
163.843
20
-50.7525
40
0.5
50
0
51
90
0
ARC
8
0
10
164.843
20
-51.8275
40
0.5
50
180
51
270
0
ARC
8
0
10
182.343
20
-52.8275
40
0.5
50
0
51
90
0
ARC
8
0
10
183.343
20
-54.1231216
40
0.5
50
180
51
269.9860657
0
ARC
8
0
10
200.8369411
20
-55.1273769
40
0.5
50
359.3097238
51
89.9860657
0
ARC
8
0
10
201.818
20
-56.7055108
40
0.5
50
179.3097238
51
180
0
ARC
8
0
10
201.818
20
-101.1109433
40
0.5
50
180
51
239.9999999
0
ARC
8
0
10
220.5659905
20
-113.0898011
40
0.5
50
329.473575
51
59.9999999
0
ARC
8
0
10
207.3692353
20
-135.4698363
40
0.5
50
239.9999999
51
329.473575
0
ARC
8
0
10
192.9349268
20
-128.2908849
40
0.5
50
59.9999999
51
81.5423124
0
ARC
8
0
10
156.3205208
20
-121.8354714
40
0.5
50
217.1116831
51
261.5423124
0
ARC
8
0
10
145.3588434
20
-109.0050344
40
0.5
50
37.1116831
51
90.0079125
0
ARC
8
0
10
91.8169807
20
-108.0124309
40
0.5
50
180.0022116
51
270.0079125
0
LINE
8
0
10
93.1
20
-106.9
11
106.9
21
-106.9
0
LINE
8
0
10
106.9
20
-106.9
11
106.9
21
-93.1
0
LINE
8
0
10
106.9
20
-93.1
11
93.1
21
-93.1
0
LINE
8
0
10
93.1
20
-93.1
11
93.1
21
-106.9
0
LINE
8
0
10
93.1
20
-89.4
11
106.9
21
-89.4
0
LINE
8
0
10
106.9
20
-89.4
11
106.9
21
-75.6
0
LINE
8
0
10
106.9
20
-75.6
11
93.1
21
-75.6
0
LINE
8
0
10
93.1
20
-75.6
11
93.1
21
-89.4
0
LINE
8
0
10
93.1
20
-71.9
11
106.9
21
-71.9
0
LINE
8
0
10
106.9
20
-71.9
11
106.9
21
-58.1
0
LINE
8
0
10
106.9
20
-58.1
11
93.1
21
-58.1
0
LINE
8
0
10
93.1
20
-58.1
11
93.1
21
-71.9
0
LINE
8
0
10
111.6
20
-106.9
11
125.4
21
-106.9
0
LINE
8
0
10
125.4
20
-106.9
11
125.4
21
-93.1
0
LINE
8
0
10
125.4
20
-93.1
11
111.6
21
-93.1
0
LINE
8
0
10
111.6
20
-93.1
11
111.6
21
-106.9
0
LINE
8
0
10
111.6
20
-89.4
11
125.4
21
-89.4
0
LINE
8
0
10
125.4
20
-89.4
11
125.4
21
-75.6
0
LINE
8
0
10
125.4
20
-75.6
11
111.6
21
-75.6
0
LINE
8
0
10
111.6
20
-75.6
11
111.6
21
-89.4
0
LINE
8
0
10
111.6
20
-71.9
11
125.4
21
-71.9
0
LINE
8
0
10
125.4
20
-71.9
11
125.4
21
-58.1
0
LINE
8
0
10
125.4
20
-58.1
11
111.6
21
-58.1
0
LINE
8
0
10
111.6
20
-58.1
11
111.6
21
-71.9
0
LINE
8
0
10
130.1
20
-102.525
11
143.9
21
-102.525
0
LINE
8
0
10
143.9
20
-102.525
11
143.9
21
-88.725
0
LINE
8
0
10
143.9
20
-88.725
11
130.1
21
-88.725
0
LINE
8
0
10
130.1
20
-88.725
11
130.1
21
-102.525
0
LINE
8
0
10
130.1
20
-85.025
11
143.9
21
-85.025
0
LINE
8
0
10
143.9
20
-85.025
11
143.9
21
-71.225
0
LINE
8
0
10
143.9
20
-71.225
11
130.1
21
-71.225
0
LINE
8
0
10
130.1
20
-71.225
11
130.1
21
-85.025
0
LINE
8
0
10
130.1
20
-67.525
11
143.9
21
-67.525
0
LINE
8
0
10
143.9
20
-67.525
11
143.9
21
-53.725
0
LINE
8
0
10
143.9
20
-53.725
11
130.1
21
-53.725
0
LINE
8
0
10
130.1
20
-53.725
11
130.1
21
-67.525
0
LINE
8
0
10
148.6
20
-100.3375
11
162.4
21
-100.3375
0
LINE
8
0
10
162.4
20
-100.3375
11
162.4
21
-86.5375
0
LINE
8
0
10
162.4
20
-86.5375
11
148.6
21
-86.5375
0
LINE
8
0
10
148.6
20
-86.5375
11
148.6
21
-100.3375
0
LINE
8
0
10
148.6
20
-82.8375
11
162.4
21
-82.8375
0
LINE
8
0
10
162.4
20
-82.8375
11
162.4
21
-69.0375
0
LINE
8
0
10
162.4
20
-69.0375
11
148.6
21
-69.0375
0
LINE
8
0
10
148.6
20
-69.0375
11
148.6
21
-82.8375
0
LINE
8
0
10
148.6
20
-65.3375
11
162.4
21
-65.3375
0
LINE
8
0
10
162.4
20
-65.3375
11
162.4
21
-51.5375
0
LINE
8
0
10
162.4
20
-51.5375
11
148.6
21
-51.5375
0
LINE
8
0
10
148.6
20
-51.5375
11
148.6
21
-65.3375
0
LINE
8
0
10
167.1
20
-102.525
11
180.9
21
-102.525
0
LINE
8
0
10
180.9
20
-102.525
11
180.9
21
-88.725
0
LINE
8
0
10
180.9
20
-88.725
11
167.1
21
-88.725
0
LINE
8
0
10
167.1
20
-88.725
11
167.1
21
-102.525
0
LINE
8
0
10
167.1
20
-85.025
11
180.9
21
-85.025
0
LINE
8
0
10
180.9
20
-85.025
11
180.9
21
-71.225
0
LINE
8
0
10
180.9
20
-71.225
11
167.1
21
-71.225
0
LINE
8
0
10
167.1
20
-71.225
11
167.1
21
-85.025
0
LINE
8
0
10
167.1
20
-67.525
11
180.9
21
-67.525
0
LINE
8
0
10
180.9
20
-67.525
11
180.9
21
-53.725
0
LINE
8
0
10
180.9
20
-53.725
11
167.1
21
-53.725
0
LINE
8
0
10
167.1
20
-53.725
11
167.1
21
-67.525
0
LINE
8
0
10
185.6
20
-104.7125
11
199.4
21
-104.7125
0
LINE
8
0
10
199.4
20
-104.7125
11
199.4
21
-90.9125
0
LINE
8
0
10
199.4
20
-90.9125
11
185.6
21
-90.9125
0
LINE
8
0
10
185.6
20
-90.9125
11
185.6
21
-104.7125
0
LINE
8
0
10
185.6
20
-87.2125
11
199.4
21
-87.2125
0
LINE
8
0
10
199.4
20
-87.2125
11
199.4
21
-73.4125
0
LINE
8
0
10
199.4
20
-73.4125
11
185.6
21
-73.4125
0
LINE
8
0
10
185.6
20
-73.4125
11
185.6
21
-87.2125
0
LINE
8
0
10
185.6
20
-69.7125
11
199.4
21
-69.7125
0
LINE
8
0
10
199.4
20
-69.7125
11
199.4
21
-55.9125
0
LINE
8
0
10
199.4
20
-55.9125
11
185.6
21
-55.9125
0
LINE
8
0
10
185.6
20
-55.9125
11
185.6
21
-69.7125
0
LINE
8
0
10
157.85
20
-120.8375
11
171.65
21
-120.8375
0
LINE
8
0
10
171.65
20
-120.8375
11
171.65
21
-107.0375
0
LINE
8
0
10
171.65
20
-107.0375
11
157.85
21
-107.0375
0
LINE
8
0
10
157.85
20
-107.0375
11
157.85
21
-120.8375
0
LINE
8
0
10
176.7992604
20
-121.5665368
11
190.1290368
21
-125.1382396
0
LINE
8
0
10
190.1290368
20
-125.1382396
11
193.7007396
21
-111.8084632
0
LINE
8
0
10
193.7007396
20
-111.8084632
11
180.3709632
21
-108.2367604
0
LINE
8
0
10
180.3709632
20
-108.2367604
11
176.7992604
21
-121.5665368
0
LINE
8
0
10
209.5394182
20
-129.7478234
11
216.4394182
21
-117.7966728
0
LINE
8
0
10
216.4394182
20
-117.7966728
11
204.4882676
21
-110.8966728
0
LINE
8
0
10
204.4882676
20
-110.8966728
11
197.5882676
21
-122.8478234
0
LINE
8
0
10
197.5882676
20
-122.8478234
11
209.5394182
21
-129.7478234
0
CIRCLE
8
0
10
109.25
20
-73.75
40
1.1
0
CIRCLE
8
0
10
109.25
20
-91.25
40
1.1
0
CIRCLE
8
0
10
183.218
20
-70.4235
40
1.1
0
CIRCLE
8
0
10
151.157
20
-107.365
40
1.1
0
CIRCLE
8
0
10
197.1576078
20
-114.6317481
40
1.1
0
ENDSEC
0
EOF