0
SECTION
2
HEADER
9
$INSUNITS
70
4
0
ENDSEC
0
SECTION
2
TABLES
0
TABLE
2
LTYPE
0
LTYPE
72
65
70
64
2
CONTINUOUS
3
______
73
0
40
0
0
ENDTAB
0
TABLE
2
LAYER
0
ENDTAB
0
ENDSEC
0
SECTION
2
ENTITIES
0
LINE
8
0
10
91.3150193
20
-57.2025058
11
91.3169807
21
-108.0124502
0
LINE
8
0
10
91.8150058
20
-56.7024865
11
127.8150135
21
-56.7015135
0
LINE
8
0
10
128.315
20
-56.2015135
11
128.315
21
-52.8275
0
LINE
8
0
10
128.815
20
-52.3275
11
146.315
21
-52.3275
0
LINE
8
0
10
146.815
20
-51.8275
11
146.815
21
-50.7525
0
LINE
8
0
10
147.315
20
-50.2525
11
163.843
21
-50.2525
0
LINE
8
0
10
164.343
20
-51.8275
11
164.343
21
-50.7525
0
LINE
8
0
10
164.843
20
-52.3275
11
182.343
21
-52.3275
0
LINE
8
0
10
182.843
20
-54.1231216
11
182.843
21
-52.8275
0
LINE
8
0
10
183.3428784
20
-54.6231216
11
200.8370627
21
-54.6273769
0
LINE
8
0
10
201.3180363
20
-56.6994871
11
201.3369048
21
-55.1334006
0
LINE
8
0
10
207.7999328
20
-135.7238041
11
221.253
21
-112.909096
0
LINE
8
0
10
193.1849268
20
-127.8578722
11
207.1192353
21
-135.902849
0
LINE
8
0
10
156.2469813
20
-122.3300338
11
193.0084663
21
-127.7963225
0
LINE
8
0
10
145.7575738
20
-108.7033491
11
155.9217904
21
-122.1371567
0
LINE
8
0
10
91.8170497
20
-108.5124309
11
145.3587744
21
-108.5050344
0
LINE
8
0
10
201.8240604
20
-56.7025
11
221.068
21
-56.7025
0
LINE
8
0
10
221.568
20
-112.2295254
11
221.568
21
-57.2025
0
LINE
8
0
10
221.253
20
-112.909096
11
221.5010127
21
-112.4795254
0
ARC
8
0
10
91.8150193
20
-57.2024865
40
0.5
50
90.001547
51
450.001547
0
ARC
8
0
10
127.815
20
-56.2015135
40
0.5
50
270.001547
51
630.001547
0
ARC
8
0
10
128.815
20
-52.8275
40
0.5
50
90
51
450
0
ARC
8
0
10
146.315
20
-51.8275
40
0.5
50
270
51
630
0
ARC
8
0
10
147.315
20
-50.7525
40
0.5
50
90
51
450
0
ARC
8
0
10
163.843
20
-50.7525
40
0.5
50
0
51
360
0
ARC
8
0
10
164.843
20
-51.8275
40
0.5
50
180
51
540
0
ARC
8
0
10
182.343
20
-52.8275
40
0.5
50
0
51
360
0
ARC
8
0
10
183.343
20
-54.1231216
40
0.5
50
180
51
540
0
ARC
8
0
10
200.8369411
20
-55.1273769
40
0.5
50
359.3097238
51
719.3097238
0
ARC
8
0
10
201.8240604
20
-56.2025
40
0.5
50
179.3097238
51
539.3097238
0
ARC
8
0
10
221.068
20
-57.2025
40
0.5
50
0
51
360
0
ARC
8
0
10
221.068
20
-112.2295254
40
0.5
50
329.9999999
51
689.9999999
0
ARC
8
0
10
207.3692353
20
-135.4698363
40
0.5
50
239.9999999
51
599.9999999
0
ARC
8
0
10
192.9349268
20
-128.2908849
40
0.5
50
59.9999999
51
419.9999999
0
ARC
8
0
10
156.3205208
20
-121.8354714
40
0.5
50
217.1116831
51
577.1116831
0
ARC
8
0
10
145.3588434
20
-109.0050344
40
0.5
50
37.1116831
51
397.1116831
0
ARC
8
0
10
91.8169807
20
-108.0124309
40
0.5
50
180.0022116
51
540.0022116
0
CIRCLE
8
0
10
109.25
20
-73.75
40
1.1
0
CIRCLE
8
0
10
109.25
20
-91.25
40
1.1
0
CIRCLE
8
0
10
183.218
20
-70.4235
40
1.1
0
CIRCLE
8
0
10
151.157
20
-107.365
40
1.1
0
CIRCLE
8
0
10
197.1576078
20
-114.6317481
40
1.1
0
CIRCLE
8
0
10
109.25
20
-73.75
40
2.15
0
CIRCLE
8
0
10
109.25
20
-91.25
40
2.15
0
CIRCLE
8
0
10
183.218
20
-70.4235
40
2.15
0
CIRCLE
8
0
10
151.157
20
-107.365
40
2.15
0
CIRCLE
8
0
10
197.1576078
20
-114.6317481
40
2.15
0
CIRCLE
8
0
10
204.927
20
-100.4385
40
1.1
0
CIRCLE
8
0
10
218.969
20
-108.8825
40
1.1
0
LINE
8
0
10
201.318
20
-56.7055108
11
201.318
21
-101.1109433
0
LINE
8
0
10
201.568
20
-101.543956
11
220.8159905
21
-112.6567884
0
ARC
8
0
10
201.818
20
-56.7055108
40
0.5
50
179.3097238
51
180
0
ARC
8
0
10
201.818
20
-101.1109433
40
0.5
50
180
51
239.9999999
0
ARC
8
0
10
220.5659905
20
-113.0898011
40
0.5
50
329.473575
51
59.9999999
0
LINE
8
0
10
93.1
20
-106.9
11
106.9
21
-106.9
0
LINE
8
0
10
106.9
20
-106.9
11
106.9
21
-93.1
0
LINE
8
0
10
106.9
20
-93.1
11
93.1
21
-93.1
0
LINE
8
0
10
93.1
20
-93.1
11
93.1
21
-106.9
0
LINE
8
0
10
93.1
20
-89.4
11
106.9
21
-89.4
0
LINE
8
0
10
106.9
20
-89.4
11
106.9
21
-75.6
0
LINE
8
0
10
106.9
20
-75.6
11
93.1
21
-75.6
0
LINE
8
0
10
93.1
20
-75.6
11
93.1
21
-89.4
0
LINE
8
0
10
93.1
20
-71.9
11
106.9
21
-71.9
0
LINE
8
0
10
106.9
20
-71.9
11
106.9
21
-58.1
0
LINE
8
0
10
106.9
20
-58.1
11
93.1
21
-58.1
0
LINE
8
0
10
93.1
20
-58.1
11
93.1
21
-71.9
0
LINE
8
0
10
111.6
20
-106.9
11
125.4
21
-106.9
0
LINE
8
0
10
125.4
20
-106.9
11
125.4
21
-93.1
0
LINE
8
0
10
125.4
20
-93.1
11
111.6
21
-93.1
0
LINE
8
0
10
111.6
20
-93.1
11
111.6
21
-106.9
0
LINE
8
0
10
111.6
20
-89.4
11
125.4
21
-89.4
0
LINE
8
0
10
125.4
20
-89.4
11
125.4
21
-75.6
0
LINE
8
0
10
125.4
20
-75.6
11
111.6
21
-75.6
0
LINE
8
0
10
111.6
20
-75.6
11
111.6
21
-89.4
0
LINE
8
0
10
111.6
20
-71.9
11
125.4
21
-71.9
0
LINE
8
0
10
125.4
20
-71.9
11
125.4
21
-58.1
0
LINE
8
0
10
125.4
20
-58.1
11
111.6
21
-58.1
0
LINE
8
0
10
111.6
20
-58.1
11
111.6
21
-71.9
0
LINE
8
0
10
130.1
20
-102.525
11
143.9
21
-102.525
0
LINE
8
0
10
143.9
20
-102.525
11
143.9
21
-88.725
0
LINE
8
0
10
143.9
20
-88.725
11
130.1
21
-88.725
0
LINE
8
0
10
130.1
20
-88.725
11
130.1
21
-102.525
0
LINE
8
0
10
130.1
20
-85.025
11
143.9
21
-85.025
0
LINE
8
0
10
143.9
20
-85.025
11
143.9
21
-71.225
0
LINE
8
0
10
143.9
20
-71.225
11
130.1
21
-71.225
0
LINE
8
0
10
130.1
20
-71.225
11
130.1
21
-85.025
0
LINE
8
0
10
130.1
20
-67.525
11
143.9
21
-67.525
0
LINE
8
0
10
143.9
20
-67.525
11
143.9
21
-53.725
0
LINE
8
0
10
143.9
20
-53.725
11
130.1
21
-53.725
0
LINE
8
0
10
130.1
20
-53.725
11
130.1
21
-67.525
0
LINE
8
0
10
148.6
20
-100.3375
11
162.4
21
-100.3375
0
LINE
8
0
10
162.4
20
-100.3375
11
162.4
21
-86.5375
0
LINE
8
0
10
162.4
20
-86.5375
11
148.6
21
-86.5375
0
LINE
8
0
10
148.6
20
-86.5375
11
148.6
21
-100.3375
0
LINE
8
0
10
148.6
20
-82.8375
11
162.4
21
-82.8375
0
LINE
8
0
10
162.4
20
-82.8375
11
162.4
21
-69.0375
0
LINE
8
0
10
162.4
20
-69.0375
11
148.6
21
-69.0375
0
LINE
8
0
10
148.6
20
-69.0375
11
148.6
21
-82.8375
0
LINE
8
0
10
148.6
20
-65.3375
11
162.4
21
-65.3375
0
LINE
8
0
10
162.4
20
-65.3375
11
162.4
21
-51.5375
0
LINE
8
0
10
162.4
20
-51.5375
11
148.6
21
-51.5375
0
LINE
8
0
10
148.6
20
-51.5375
11
148.6
21
-65.3375
0
LINE
8
0
10
167.1
20
-102.525
11
180.9
21
-102.525
0
LINE
8
0
10
180.9
20
-102.525
11
180.9
21
-88.725
0
LINE
8
0
10
180.9
20
-88.725
11
167.1
21
-88.725
0
LINE
8
0
10
167.1
20
-88.725
11
167.1
21
-102.525
0
LINE
8
0
10
167.1
20
-85.025
11
180.9
21
-85.025
0
LINE
8
0
10
180.9
20
-85.025
11
180.9
21
-71.225
0
LINE
8
0
10
180.9
20
-71.225
11
167.1
21
-71.225
0
LINE
8
0
10
167.1
20
-71.225
11
167.1
21
-85.025
0
LINE
8
0
10
167.1
20
-67.525
11
180.9
21
-67.525
0
LINE
8
0
10
180.9
20
-67.525
11
180.9
21
-53.725
0
LINE
8
0
10
180.9
20
-53.725
11
167.1
21
-53.725
0
LINE
8
0
10
167.1
20
-53.725
11
167.1
21
-67.525
0
LINE
8
0
10
185.6
20
-104.7125
11
199.4
21
-104.7125
0
LINE
8
0
10
199.4
20
-104.7125
11
199.4
21
-90.9125
0
LINE
8
0
10
199.4
20
-90.9125
11
185.6
21
-90.9125
0
LINE
8
0
10
185.6
20
-90.9125
11
185.6
21
-104.7125
0
LINE
8
0
10
185.6
20
-87.2125
11
199.4
21
-87.2125
0
LINE
8
0
10
199.4
20
-87.2125
11
199.4
21
-73.4125
0
LINE
8
0
10
199.4
20
-73.4125
11
185.6
21
-73.4125
0
LINE
8
0
10
185.6
20
-73.4125
11
185.6
21
-87.2125
0
LINE
8
0
10
185.6
20
-69.7125
11
199.4
21
-69.7125
0
LINE
8
0
10
199.4
20
-69.7125
11
199.4
21
-55.9125
0
LINE
8
0
10
199.4
20
-55.9125
11
185.6
21
-55.9125
0
LINE
8
0
10
185.6
20
-55.9125
11
185.6
21
-69.7125
0
LINE
8
0
10
157.85
20
-120.8375
11
171.65
21
-120.8375
0
LINE
8
0
10
171.65
20
-120.8375
11
171.65
21
-107.0375
0
LINE
8
0
10
171.65
20
-107.0375
11
157.85
21
-107.0375
0
LINE
8
0
10
157.85
20
-107.0375
11
157.85
21
-120.8375
0
LINE
8
0
10
176.7992604
20
-121.5665368
11
190.1290368
21
-125.1382396
0
LINE
8
0
10
190.1290368
20
-125.1382396
11
193.7007396
21
-111.8084632
0
LINE
8
0
10
193.7007396
20
-111.8084632
11
180.3709632
21
-108.2367604
0
LINE
8
0
10
180.3709632
20
-108.2367604
11
176.7992604
21
-121.5665368
0
LINE
8
0
10
209.5394182
20
-129.7478234
11
216.4394182
21
-117.7966728
0
LINE
8
0
10
216.4394182
20
-117.7966728
11
204.4882676
21
-110.8966728
0
LINE
8
0
10
204.4882676
20
-110.8966728
11
197.5882676
21
-122.8478234
0
LINE
8
0
10
197.5882676
20
-122.8478234
11
209.5394182
21
-129.7478234
0
LINE
8
0
10
202.348
20
-100.9781527
11
202.348
21
-57.2025
0
LINE
8
0
10
220.818
20
-111.9304873
11
202.598
21
-101.4111654
0
ARC
8
0
10
202.848
20
-57.2025
40
0.5
50
90
51
180
0
ARC
8
0
10
221.068
20
-111.4974746
40
0.5
50
239.9999999
51
0
0
ARC
8
0
10
202.848
20
-100.9781527
40
0.5
50
180
51
239.9999999
0
LINE
8
0
10
93.25
20
-108.25
11
106.75
21
-108.25
0
LINE
8
0
10
108.75
20
-106.25
11
108.75
21
-93.75
0
LINE
8
0
10
106.75
20
-91.75
11
93.25
21
-91.75
0
LINE
8
0
10
91.25
20
-93.75
11
91.25
21
-106.25
0
LINE
8
0
10
93.25
20
-90.75
11
106.75
21
-90.75
0
LINE
8
0
10
108.75
20
-88.75
11
108.75
21
-76.25
0
LINE
8
0
10
106.75
20
-74.25
11
93.25
21
-74.25
0
LINE
8
0
10
91.25
20
-76.25
11
91.25
21
-88.75
0
LINE
8
0
10
93.25
20
-73.25
11
106.75
21
-73.25
0
LINE
8
0
10
108.75
20
-71.25
11
108.75
21
-58.75
0
LINE
8
0
10
106.75
20
-56.75
11
93.25
21
-56.75
0
LINE
8
0
10
91.25
20
-58.75
11
91.25
21
-71.25
0
LINE
8
0
10
111.75
20
-108.25
11
125.25
21
-108.25
0
LINE
8
0
10
127.25
20
-106.25
11
127.25
21
-93.75
0
LINE
8
0
10
125.25
20
-91.75
11
111.75
21
-91.75
0
LINE
8
0
10
109.75
20
-93.75
11
109.75
21
-106.25
0
LINE
8
0
10
111.75
20
-90.75
11
125.25
21
-90.75
0
LINE
8
0
10
127.25
20
-88.75
11
127.25
21
-76.25
0
LINE
8
0
10
125.25
20
-74.25
11
111.75
21
-74.25
0
LINE
8
0
10
109.75
20
-76.25
11
109.75
21
-88.75
0
LINE
8
0
10
111.75
20
-73.25
11
125.25
21
-73.25
0
LINE
8
0
10
127.25
20
-71.25
11
127.25
21
-58.75
0
LINE
8
0
10
125.25
20
-56.75
11
111.75
21
-56.75
0
LINE
8
0
10
109.75
20
-58.75
11
109.75
21
-71.25
0
LINE
8
0
10
130.25
20
-103.875
11
143.75
21
-103.875
0
LINE
8
0
10
145.75
20
-101.875
11
145.75
21
-89.375
0
LINE
8
0
10
143.75
20
-87.375
11
130.25
21
-87.375
0
LINE
8
0
10
128.25
20
-89.375
11
128.25
21
-101.875
0
LINE
8
0
10
130.25
20
-86.375
11
143.75
21
-86.375
0
LINE
8
0
10
145.75
20
-84.375
11
145.75
21
-71.875
0
LINE
8
0
10
143.75
20
-69.875
11
130.25
21
-69.875
0
LINE
8
0
10
128.25
20
-71.875
11
128.25
21
-84.375
0
LINE
8
0
10
130.25
20
-68.875
11
143.75
21
-68.875
0
LINE
8
0
10
145.75
20
-66.875
11
145.75
21
-54.375
0
LINE
8
0
10
143.75
20
-52.375
11
130.25
21
-52.375
0
LINE
8
0
10
128.25
20
-54.375
11
128.25
21
-66.875
0
LINE
8
0
10
148.75
20
-101.6875
11
162.25
21
-101.6875
0
LINE
8
0
10
164.25
20
-99.6875
11
164.25
21
-87.1875
0
LINE
8
0
10
162.25
20
-85.1875
11
148.75
21
-85.1875
0
LINE
8
0
10
146.75
20
-87.1875
11
146.75
21
-99.6875
0
LINE
8
0
10
148.75
20
-84.1875
11
162.25
21
-84.1875
0
LINE
8
0
10
164.25
20
-82.1875
11
164.25
21
-69.6875
0
LINE
8
0
10
162.25
20
-67.6875
11
148.75
21
-67.6875
0
LINE
8
0
10
146.75
20
-69.6875
11
146.75
21
-82.1875
0
LINE
8
0
10
148.75
20
-66.6875
11
162.25
21
-66.6875
0
LINE
8
0
10
164.25
20
-64.6875
11
164.25
21
-52.1875
0
LINE
8
0
10
162.25
20
-50.1875
11
148.75
21
-50.1875
0
LINE
8
0
10
146.75
20
-52.1875
11
146.75
21
-64.6875
0
LINE
8
0
10
167.25
20
-103.875
11
180.75
21
-103.875
0
LINE
8
0
10
182.75
20
-101.875
11
182.75
21
-89.375
0
LINE
8
0
10
180.75
20
-87.375
11
167.25
21
-87.375
0
LINE
8
0
10
165.25
20
-89.375
11
165.25
21
-101.875
0
LINE
8
0
10
167.25
20
-86.375
11
180.75
21
-86.375
0
LINE
8
0
10
182.75
20
-84.375
11
182.75
21
-71.875
0
LINE
8
0
10
180.75
20
-69.875
11
167.25
21
-69.875
0
LINE
8
0
10
165.25
20
-71.875
11
165.25
21
-84.375
0
LINE
8
0
10
167.25
20
-68.875
11
180.75
21
-68.875
0
LINE
8
0
10
182.75
20
-66.875
11
182.75
21
-54.375
0
LINE
8
0
10
180.75
20
-52.375
11
167.25
21
-52.375
0
LINE
8
0
10
165.25
20
-54.375
11
165.25
21
-66.875
0
LINE
8
0
10
185.75
20
-106.0625
11
199.25
21
-106.0625
0
LINE
8
0
10
201.25
20
-104.0625
11
201.25
21
-91.5625
0
LINE
8
0
10
199.25
20
-89.5625
11
185.75
21
-89.5625
0
LINE
8
0
10
183.75
20
-91.5625
11
183.75
21
-104.0625
0
LINE
8
0
10
185.75
20
-88.5625
11
199.25
21
-88.5625
0
LINE
8
0
10
201.25
20
-86.5625
11
201.25
21
-74.0625
0
LINE
8
0
10
199.25
20
-72.0625
11
185.75
21
-72.0625
0
LINE
8
0
10
183.75
20
-74.0625
11
183.75
21
-86.5625
0
LINE
8
0
10
185.75
20
-71.0625
11
199.25
21
-71.0625
0
LINE
8
0
10
201.25
20
-69.0625
11
201.25
21
-56.5625
0
LINE
8
0
10
199.25
20
-54.5625
11
185.75
21
-54.5625
0
LINE
8
0
10
183.75
20
-56.5625
11
183.75
21
-69.0625
0
LINE
8
0
10
158
20
-122.1875
11
171.5
21
-122.1875
0
LINE
8
0
10
173.5
20
-120.1875
11
173.5
21
-107.6875
0
LINE
8
0
10
171.5
20
-105.6875
11
158
21
-105.6875
0
LINE
8
0
10
156
20
-107.6875
11
156
21
-120.1875
0
LINE
8
0
10
176.5947437
20
-122.9093595
11
189.6347423
21
-126.4034166
0
LINE
8
0
10
192.084232
20
-124.9892029
11
195.31947
21
-112.9151302
0
LINE
8
0
10
193.9052563
20
-110.4656405
11
180.8652577
21
-106.9715834
0
LINE
8
0
10
178.415768
20
-108.3857971
11
175.18053
21
-120.4598698
0
LINE
8
0
10
208.5960525
20
-134.0817807
11
219.7210525
21
-114.8127155
0
LINE
8
0
10
194.3066333
20
-125.8317807
11
205.4316333
21
-106.5627155
0
ARC
8
0
10
106.75
20
-106.25
40
2
50
270
51
0
0
ARC
8
0
10
106.75
20
-93.75
40
2
50
0
51
90
0
ARC
8
0
10
93.25
20
-93.75
40
2
50
90
51
180
0
ARC
8
0
10
93.25
20
-106.25
40
2
50
180
51
270
0
ARC
8
0
10
106.75
20
-88.75
40
2
50
270
51
0
0
ARC
8
0
10
106.75
20
-76.25
40
2
50
0
51
90
0
ARC
8
0
10
93.25
20
-76.25
40
2
50
90
51
180
0
ARC
8
0
10
93.25
20
-88.75
40
2
50
180
51
270
0
ARC
8
0
10
106.75
20
-71.25
40
2
50
270
51
0
0
ARC
8
0
10
106.75
20
-58.75
40
2
50
0
51
90
0
ARC
8
0
10
93.25
20
-58.75
40
2
50
90
51
180
0
ARC
8
0
10
93.25
20
-71.25
40
2
50
180
51
270
0
ARC
8
0
10
125.25
20
-106.25
40
2
50
270
51
0
0
ARC
8
0
10
125.25
20
-93.75
40
2
50
0
51
90
0
ARC
8
0
10
111.75
20
-93.75
40
2
50
90
51
180
0
ARC
8
0
10
111.75
20
-106.25
40
2
50
180
51
270
0
ARC
8
0
10
125.25
20
-88.75
40
2
50
270
51
0
0
ARC
8
0
10
125.25
20
-76.25
40
2
50
0
51
90
0
ARC
8
0
10
111.75
20
-76.25
40
2
50
90
51
180
0
ARC
8
0
10
111.75
20
-88.75
40
2
50
180
51
270
0
ARC
8
0
10
125.25
20
-71.25
40
2
50
270
51
0
0
ARC
8
0
10
125.25
20
-58.75
40
2
50
0
51
90
0
ARC
8
0
10
111.75
20
-58.75
40
2
50
90
51
180
0
ARC
8
0
10
111.75
20
-71.25
40
2
50
180
51
270
0
ARC
8
0
10
143.75
20
-101.875
40
2
50
270
51
0
0
ARC
8
0
10
143.75
20
-89.375
40
2
50
0
51
90
0
ARC
8
0
10
130.25
20
-89.375
40
2
50
90
51
180
0
ARC
8
0
10
130.25
20
-101.875
40
2
50
180
51
270
0
ARC
8
0
10
143.75
20
-84.375
40
2
50
270
51
0
0
ARC
8
0
10
143.75
20
-71.875
40
2
50
0
51
90
0
ARC
8
0
10
130.25
20
-71.875
40
2
50
90
51
180
0
ARC
8
0
10
130.25
20
-84.375
40
2
50
180
51
270
0
ARC
8
0
10
143.75
20
-66.875
40
2
50
270
51
0
0
ARC
8
0
10
143.75
20
-54.375
40
2
50
0
51
90
0
ARC
8
0
10
130.25
20
-54.375
40
2
50
90
51
180
0
ARC
8
0
10
130.25
20
-66.875
40
2
50
180
51
270
0
ARC
8
0
10
162.25
20
-99.6875
40
2
50
270
51
0
0
ARC
8
0
10
162.25
20
-87.1875
40
2
50
0
51
90
0
ARC
8
0
10
148.75
20
-87.1875
40
2
50
90
51
180
0
ARC
8
0
10
148.75
20
-99.6875
40
2
50
180
51
270
0
ARC
8
0
10
162.25
20
-82.1875
40
2
50
270
51
0
0
ARC
8
0
10
162.25
20
-69.6875
40
2
50
0
51
90
0
ARC
8
0
10
148.75
20
-69.6875
40
2
50
90
51
180
0
ARC
8
0
10
148.75
20
-82.1875
40
2
50
180
51
270
0
ARC
8
0
10
162.25
20
-64.6875
40
2
50
270
51
0
0
ARC
8
0
10
162.25
20
-52.1875
40
2
50
0
51
90
0
ARC
8
0
10
148.75
20
-52.1875
40
2
50
90
51
180
0
ARC
8
0
10
148.75
20
-64.6875
40
2
50
180
51
270
0
ARC
8
0
10
180.75
20
-101.875
40
2
50
270
51
0
0
ARC
8
0
10
180.75
20
-89.375
40
2
50
0
51
90
0
ARC
8
0
10
167.25
20
-89.375
40
2
50
90
51
180
0
ARC
8
0
10
167.25
20
-101.875
40
2
50
180
51
270
0
ARC
8
0
10
180.75
20
-84.375
40
2
50
270
51
0
0
ARC
8
0
10
180.75
20
-71.875
40
2
50
0
51
90
0
ARC
8
0
10
167.25
20
-71.875
40
2
50
90
51
180
0
ARC
8
0
10
167.25
20
-84.375
40
2
50
180
51
270
0
ARC
8
0
10
180.75
20
-66.875
40
2
50
270
51
0
0
ARC
8
0
10
180.75
20
-54.375
40
2
50
0
51
90
0
ARC
8
0
10
167.25
20
-54.375
40
2
50
90
51
180
0
ARC
8
0
10
167.25
20
-66.875
40
2
50
180
51
270
0
ARC
8
0
10
199.25
20
-104.0625
40
2
50
270
51
0
0
ARC
8
0
10
199.25
20
-91.5625
40
2
50
0
51
90
0
ARC
8
0
10
185.75
20
-91.5625
40
2
50
90
51
180
0
ARC
8
0
10
185.75
20
-104.0625
40
2
50
180
51
270
0
ARC
8
0
10
199.25
20
-86.5625
40
2
50
270
51
0
0
ARC
8
0
10
199.25
20
-74.0625
40
2
50
0
51
90
0
ARC
8
0
10
185.75
20
-74.0625
40
2
50
90
51
180
0
ARC
8
0
10
185.75
20
-86.5625
40
2
50
180
51
270
0
ARC
8
0
10
199.25
20
-69.0625
40
2
50
270
51
0
0
ARC
8
0
10
199.25
20
-56.5625
40
2
50
0
51
90
0
ARC
8
0
10
185.75
20
-56.5625
40
2
50
90
51
180
0
ARC
8
0
10
185.75
20
-69.0625
40
2
50
180
51
270
0
ARC
8
0
10
171.5
20
-120.1875
40
2
50
270
51
0
0
ARC
8
0
10
171.5
20
-107.6875
40
2
50
0
51
90
0
ARC
8
0
10
158
20
-107.6875
40
2
50
90
51
180
0
ARC
8
0
10
158
20
-120.1875
40
2
50
180
51
270
0
ARC
8
0
10
190.1523803
20
-124.4715649
40
2
50
255.0000021
51
345.0000021
0
ARC
8
0
10
193.3876183
20
-112.3974922
40
2
50
345.0000021
51
75.0000021
0
ARC
8
0
10
180.3476197
20
-108.9034351
40
2
50
75.0000021
51
165.0000021
0
ARC
8
0
10
177.1123817
20
-120.9775078
40
2
50
165.0000021
51
255.0000021
0
LINE
8
0
10
218.9890017
20
-112.0806647
11
208.1636841
21
-105.8306647
0
LINE
8
0
10
195.0386841
20
-128.5638315
11
205.8640017
21
-134.8138315
0
ARC
8
0
10
217.9890017
20
-113.8127155
40
2
50
329.9999999
51
59.9999999
0
ARC
8
0
10
207.1636841
20
-107.5627155
40
2
50
59.9999999
51
149.9999999
0
ARC
8
0
10
196.0386841
20
-126.8317807
40
2
50
149.9999999
51
239.9999999
0
ARC
8
0
10
206.8640017
20
-133.0817807
40
2
50
239.9999999
51
329.9999999
0
LINE
8
0
10
89.865
20
-56.702556
11
89.867
21
-108.512556
0
LINE
8
0
10
89.8649633
20
-55.752545
11
89.865
21
-56.702556
0
LINE
8
0
10
90.3649498
20
-55.2525257
11
126.3650135
21
-55.2515527
0
LINE
8
0
10
126.865
20
-54.7515527
11
126.865
21
-51.3775
0
LINE
8
0
10
127.365
20
-50.8775
11
144.865
21
-50.8775
0
LINE
8
0
10
145.365
20
-50.3775
11
145.365
21
-49.3025
0
LINE
8
0
10
145.865
20
-48.8025
11
165.293
21
-48.8025
0
LINE
8
0
10
165.793
20
-50.3775
11
165.793
21
-49.3025
0
LINE
8
0
10
166.293
20
-50.8775
11
183.793
21
-50.8775
0
LINE
8
0
10
184.293
20
-52.6734742
11
184.293
21
-51.3775
0
LINE
8
0
10
184.7928784
20
-53.1734742
11
202.3046335
21
-53.1777338
0
LINE
8
0
10
202.7928948
20
-54.6449686
11
202.8044756
21
-53.6837575
0
LINE
8
0
10
202.7916718
20
-54.7464763
11
202.7928948
21
-54.6449686
0
LINE
8
0
10
203.2916355
20
-55.2525
11
222.518
21
-55.2525
0
LINE
8
0
10
223.018
20
-112.7520263
11
223.018
21
-55.7525
0
LINE
8
0
10
222.5087368
20
-113.634096
11
223.018
21
-112.7520263
0
LINE
8
0
10
222.5054062
20
-113.6398648
11
222.5087368
21
-113.634096
0
LINE
8
0
10
208.3191848
20
-137.6979102
11
222.5054062
21
-113.6398648
0
LINE
8
0
10
192.6988164
20
-129.251532
11
207.6384873
21
-137.8769551
0
LINE
8
0
10
155.4479709
20
-123.6771666
11
192.5223559
21
-129.1899823
0
LINE
8
0
10
145.0364696
20
-110.1534487
11
155.1227799
21
-123.4842896
0
LINE
8
0
10
90.3671057
20
-109.9626312
11
144.6376701
21
-109.955134
0
LINE
8
0
10
89.867
20
-108.512556
11
89.8670367
21
-109.4626505
0
ARC
8
0
10
90.3649633
20
-55.7525257
40
0.5
50
90.001547
51
450.001547
0
ARC
8
0
10
126.365
20
-54.7515527
40
0.5
50
270.001547
51
630.001547
0
ARC
8
0
10
127.365
20
-51.3775
40
0.5
50
90
51
450
0
ARC
8
0
10
144.865
20
-50.3775
40
0.5
50
270
51
630
0
ARC
8
0
10
145.865
20
-49.3025
40
0.5
50
90
51
450
0
ARC
8
0
10
165.293
20
-49.3025
40
0.5
50
0
51
360
0
ARC
8
0
10
166.293
20
-50.3775
40
0.5
50
180
51
540
0
ARC
8
0
10
183.793
20
-51.3775
40
0.5
50
0
51
360
0
ARC
8
0
10
184.793
20
-52.6734742
40
0.5
50
180
51
540
0
ARC
8
0
10
202.3045119
20
-53.6777338
40
0.5
50
359.3097238
51
719.3097238
0
ARC
8
0
10
203.2916355
20
-54.7525
40
0.5
50
179.3097238
51
539.3097238
0
ARC
8
0
10
222.518
20
-55.7525
40
0.5
50
0
51
360
0
ARC
8
0
10
207.8884873
20
-137.4439424
40
0.5
50
239.9999999
51
599.9999999
0
ARC
8
0
10
192.4488164
20
-129.6845447
40
0.5
50
59.9999999
51
419.9999999
0
ARC
8
0
10
155.5215104
20
-123.1826042
40
0.5
50
217.1116831
51
577.1116831
0
ARC
8
0
10
144.6377392
20
-110.455134
40
0.5
50
37.1116831
51
397.1116831
0
ARC
8
0
10
90.3670367
20
-109.4626312
40
0.5
50
180.0022117
51
540.0022117
0
LINE
8
0
10
91.067
20
-108.5125097
11
91.065
21
-56.7025097
0
LINE
8
0
10
91.0649903
20
-56.4525068
11
91.065
21
-56.7025097
0
LINE
8
0
10
91.0649903
20
-56.4525068
11
127.5650135
21
-56.4515203
0
LINE
8
0
10
128.065
20
-55.9515203
11
128.065
21
-52.0775
0
LINE
8
0
10
128.065
20
-52.0775
11
146.065
21
-52.0775
0
LINE
8
0
10
146.565
20
-51.5775
11
146.565
21
-50.0025
0
LINE
8
0
10
146.565
20
-50.0025
11
164.593
21
-50.0025
0
LINE
8
0
10
164.593
20
-51.5775
11
164.593
21
-50.0025
0
LINE
8
0
10
165.093
20
-52.0775
11
183.093
21
-52.0775
0
LINE
8
0
10
183.093
20
-53.8731824
11
183.093
21
-52.0775
0
LINE
8
0
10
183.5928784
20
-54.3731824
11
201.5960294
21
-54.3775615
0
LINE
8
0
10
201.5929819
20
-54.6305118
11
201.5960294
21
-54.3775615
0
LINE
8
0
10
201.5929819
20
-54.6305118
11
201.5771269
21
-55.9464763
0
LINE
8
0
10
202.0770906
20
-56.4525
11
221.818
21
-56.4525
0
LINE
8
0
10
221.818
20
-112.4304873
11
221.818
21
-56.4525
0
LINE
8
0
10
221.4695064
20
-113.034096
11
221.818
21
-112.4304873
0
LINE
8
0
10
221.4689321
20
-113.0350906
11
221.4695064
21
-113.034096
0
LINE
8
0
10
221.4682351
20
-113.0362725
11
207.7637499
21
-136.2773538
0
LINE
8
0
10
207.6380058
20
-136.4910364
11
207.7637499
21
-136.2773538
0
LINE
8
0
10
193.1011145
20
-128.0981583
11
207.6380058
21
-136.4910364
0
LINE
8
0
10
155.9072396
20
-122.5322643
11
192.924654
21
-128.0366086
0
LINE
8
0
10
145.6332455
20
-108.9533663
11
155.9072396
21
-122.5322643
0
LINE
8
0
10
91.0670097
20
-108.7625345
11
145.234446
21
-108.7550515
0
LINE
8
0
10
91.067
20
-108.5125097
11
91.0670097
21
-108.7625345
0
ARC
8
0
10
127.565
20
-55.9515203
40
0.5
50
270.001547
51
0
0
ARC
8
0
10
146.065
20
-51.5775
40
0.5
50
270
51
0
0
ARC
8
0
10
165.093
20
-51.5775
40
0.5
50
180
51
270
0
ARC
8
0
10
183.593
20
-53.8731824
40
0.5
50
180
51
269.9860657
0
ARC
8
0
10
202.0770906
20
-55.9525
40
0.5
50
179.3097238
51
270
0
ARC
8
0
10
192.8511145
20
-128.531171
40
0.5
50
59.9999999
51
81.5423124
0
ARC
8
0
10
145.2345151
20
-109.2550515
40
0.5
50
37.1116831
51
90.0079125
0
LINE
8
0
10
93.716888
20
-105.6121186
11
93.7151119
21
-59.6024409
0
LINE
8
0
10
94.2150984
20
-59.1024216
11
130.2150135
21
-59.1014486
0
LINE
8
0
10
130.715
20
-58.6014486
11
130.715
21
-55.2275
0
LINE
8
0
10
131.215
20
-54.7275
11
148.4729804
21
-54.7275
0
LINE
8
0
10
148.9683748
20
-54.2952084
11
149.1338093
21
-53.0847916
0
LINE
8
0
10
149.6292037
20
-52.6525
11
161.5287963
21
-52.6525
0
LINE
8
0
10
162.0241907
20
-53.0847916
11
162.1896252
21
-54.2952084
0
LINE
8
0
10
162.6850196
20
-54.7275
11
179.966593
21
-54.7275
0
LINE
8
0
10
180.4661188
20
-55.2057291
11
180.524459
21
-56.5443284
0
LINE
8
0
10
181.0238632
20
-57.0225576
11
198.5037154
21
-57.0268095
0
LINE
8
0
10
198.9990048
20
-57.4592229
11
199.1641973
21
-58.6700866
0
LINE
8
0
10
199.6596083
20
-59.1025
11
218.668
21
-59.1025
0
LINE
8
0
10
219.168
20
-59.6025
11
219.168
21
-111.5835464
0
LINE
8
0
10
219.0986975
20
-111.8375142
11
206.9404812
21
-132.4563182
0
LINE
8
0
10
193.9071476
20
-125.5035653
11
206.2597837
21
-132.6353631
0
LINE
8
0
10
157.5694814
20
-120.1002969
11
193.9071476
21
-125.5035653
0
LINE
8
0
10
157.2442905
20
-119.9074197
11
147.5218241
21
-107.057463
0
LINE
8
0
10
147.5209881
20
-107.0563581
11
146.9511257
21
-106.3031841
0
LINE
8
0
10
94.2169571
20
-106.1120993
11
146.5523261
21
-106.1048695
0
ARC
8
0
10
94.2151119
20
-59.6024216
40
0.5
50
90.001547
51
180.0022116
0
ARC
8
0
10
130.215
20
-58.6014486
40
0.5
50
270.001547
51
0
0
ARC
8
0
10
131.215
20
-55.2275
40
0.5
50
90
51
180
0
ARC
8
0
10
148.4729804
20
-54.2275
40
0.5
50
270
51
352.2172834
0
ARC
8
0
10
149.6292037
20
-53.1525
40
0.5
50
90
51
172.2172834
0
ARC
8
0
10
161.5287963
20
-53.1525
40
0.5
50
7.7827166
51
90
0
ARC
8
0
10
162.6850196
20
-54.2275
40
0.5
50
187.7827166
51
270
0
ARC
8
0
10
179.966593
20
-55.2275
40
0.5
50
2.4955446
51
90
0
ARC
8
0
10
181.0239848
20
-56.5225576
40
0.5
50
182.4955446
51
269.9860657
0
ARC
8
0
10
198.5035938
20
-57.5268095
40
0.5
50
7.7686352
51
89.9860657
0
ARC
8
0
10
199.6596083
20
-58.6025
40
0.5
50
187.7686352
51
270
0
ARC
8
0
10
218.668
20
-59.6025
40
0.5
50
0
51
90
0
ARC
8
0
10
218.668
20
-111.5835464
40
0.5
50
329.473575
51
0
0
ARC
8
0
10
206.5097837
20
-132.2023504
40
0.5
50
239.9999999
51
329.473575
0
ARC
8
0
10
157.6430209
20
-119.6057345
40
0.5
50
217.1116831
51
261.5423124
0
ARC
8
0
10
146.5523952
20
-106.6048695
40
0.5
50
37.1116831
51
90.0079125
0
ARC
8
0
10
94.216888
20
-105.6120993
40
0.5
50
180.0022116
51
270.0079125
0
ENDSEC
0
EOF