solid OpenSCAD_Model
  facet normal 0 -0.7071067811865476 -0.7071067811865476
    outer loop
      vertex 0.5 0.5 0
      vertex 39.5 0.5 0
      vertex 0.5 0 0.5
    endloop
  endfacet
  facet normal 0 0 -1
    outer loop
      vertex 0.5 0.5 0
      vertex 39.5 12.523715415019762 0
      vertex 39.5 0.5 0
    endloop
  endfacet
  facet normal 0 -0.7071067811865476 -0.7071067811865476
    outer loop
      vertex 0.5 0 0.5
      vertex 39.5 0.5 0
      vertex 39.5 0 0.5
    endloop
  endfacet
  facet normal 0 0 -1
    outer loop
      vertex 0.5 0.5 0
      vertex 39.5 39.5 0
      vertex 39.5 12.523715415019762 0
    endloop
  endfacet
  facet normal -1 0 0
    outer loop
      vertex 0 0.5 0.5
      vertex 0 0.5 5.5
      vertex 0 126.5 0.5
    endloop
  endfacet
  facet normal 0 -1 0
    outer loop
      vertex 0.5 0 0.5
      vertex 39.5 0 0.5
      vertex 39.5 0 5.5
    endloop
  endfacet
  facet normal -0.7071067811865475 0 -0.7071067811865475
    outer loop
      vertex 0 0.5 0.5
      vertex 0.5 127 0
      vertex 0.5 39.5 0
    endloop
  endfacet
  facet normal 0 0 -1
    outer loop
      vertex 0.5 0.5 0
      vertex 0.5 39.5 0
      vertex 39.5 127 0
    endloop
  endfacet
  facet normal -0.7071067811865476 0 -0.7071067811865476
    outer loop
      vertex 0 0.5 0.5
      vertex 0 126.5 0.5
      vertex 0.5 127 0
    endloop
  endfacet
  facet normal 0 0 -1
    outer loop
      vertex 0.5 0.5 0
      vertex 39.5 127 0
      vertex 39.5 39.5 0
    endloop
  endfacet
  facet normal 0.7071067811865475 0 -0.7071067811865475
    outer loop
      vertex 39.5 39.5 0
      vertex 39.5 127 0
      vertex 40 40 0.5
    endloop
  endfacet
  facet normal 1 0 0
    outer loop
      vertex 40 40 0.5
      vertex 40 126.5 0.5
      vertex 40 40 5.5
    endloop
  endfacet
  facet normal 0 -1 0
    outer loop
      vertex 0.5 0 0.5
      vertex 39.5 0 5.5
      vertex 0.5 0 5.5
    endloop
  endfacet
  facet normal 0 0 1
    outer loop
      vertex 0.5 0.5 6
      vertex 30.309667673716014 30.309667673716014 6
      vertex 0.5 39.5 6
    endloop
  endfacet
  facet normal 0 0 1
    outer loop
      vertex 0.5 0.5 6
      vertex 39.5 0.5 6
      vertex 30.309667673716014 30.309667673716014 6
    endloop
  endfacet
  facet normal -1 0 0
    outer loop
      vertex 0 0.5 5.5
      vertex 0 126.5 5.5
      vertex 0 126.5 0.5
    endloop
  endfacet
  facet normal -0.7071067811865486 0 0.7071067811865465
    outer loop
      vertex 0 0.5 5.5
      vertex 0.1541501976284585 39.5 5.654150197628459
      vertex 0 126.5 5.5
    endloop
  endfacet
  facet normal -0.707106781186547 -1.2056668685719184e-19 0.707106781186548
    outer loop
      vertex 0.1541501976284585 39.5 5.654150197628459
      vertex 0.5 39.5 6
      vertex 0.5 127 6
    endloop
  endfacet
  facet normal 0 0 1
    outer loop
      vertex 30.309667673716014 30.309667673716014 6
      vertex 0.5 127 6
      vertex 0.5 39.5 6
    endloop
  endfacet
  facet normal 0 0 1
    outer loop
      vertex 30.309667673716014 30.309667673716014 6
      vertex 39.5 39.5 6
      vertex 0.5 127 6
    endloop
  endfacet
  facet normal 0.7071067811865476 0 0.7071067811865476
    outer loop
      vertex 39.5 39.5 6
      vertex 40 40 5.5
      vertex 40 126.5 5.5
    endloop
  endfacet
  facet normal 0 0 -1
    outer loop
      vertex 0.5 39.5 0
      vertex 0.5 127 0
      vertex 12.312154975561807 127 0
    endloop
  endfacet
  facet normal 0 0 -1
    outer loop
      vertex 0.5 39.5 0
      vertex 12.312154975561807 127 0
      vertex 12.313204839524118 126.98799999999999 0
    endloop
  endfacet
  facet normal 0 0 -1
    outer loop
      vertex 0.5 39.5 0
      vertex 12.313204839524118 126.98799999999999 0
      vertex 27.68679516047588 126.98799999999999 0
    endloop
  endfacet
  facet normal 0 0 -1
    outer loop
      vertex 0.5 39.5 0
      vertex 27.68679516047588 126.98799999999999 0
      vertex 39.5 127 0
    endloop
  endfacet
  facet normal 0.7071067811865476 0 -0.7071067811865476
    outer loop
      vertex 40 40 0.5
      vertex 39.5 127 0
      vertex 40 126.5 0.5
    endloop
  endfacet
  facet normal 0 0 -1
    outer loop
      vertex 27.68679516047588 126.98799999999999 0
      vertex 27.687845024438193 127 0
      vertex 39.5 127 0
    endloop
  endfacet
  facet normal -0.7071067811865476 0.7071067811865476 0
    outer loop
      vertex 0.5 127 0
      vertex 0 126.5 0.5
      vertex 0.5 127 6
    endloop
  endfacet
  facet normal 0 1 0
    outer loop
      vertex 0.5 127 0
      vertex 11.312154975561809 127 6
      vertex 12.312154975561807 127 0
    endloop
  endfacet
  facet normal 0 1 0
    outer loop
      vertex 27.687845024438193 127 0
      vertex 39.5 127 6
      vertex 39.5 127 0
    endloop
  endfacet
  facet normal 0.7071067811865476 0.7071067811865476 0
    outer loop
      vertex 39.5 127 0
      vertex 39.5 127 6
      vertex 40 126.5 0.5
    endloop
  endfacet
  facet normal -0.7071067811865475 0.7071067811865475 0
    outer loop
      vertex 0 126.5 0.5
      vertex 0 126.5 5.5
      vertex 0.5 127 6
    endloop
  endfacet
  facet normal 0 1 0
    outer loop
      vertex 0.5 127 0
      vertex 0.5 127 6
      vertex 11.312154975561809 127 6
    endloop
  endfacet
  facet normal 1 0 0
    outer loop
      vertex 40 40 5.5
      vertex 40 126.5 0.5
      vertex 40 126.5 5.5
    endloop
  endfacet
  facet normal 0 1 0
    outer loop
      vertex 27.687845024438193 127 0
      vertex 28.687845024438193 127 6
      vertex 39.5 127 6
    endloop
  endfacet
  facet normal 0.7071067811865475 0.7071067811865475 0
    outer loop
      vertex 40 126.5 0.5
      vertex 39.5 127 6
      vertex 40 126.5 5.5
    endloop
  endfacet
  facet normal -0.7071067811865476 3.631891597151564e-18 0.7071067811865476
    outer loop
      vertex 0.1541501976284585 39.5 5.654150197628459
      vertex 0.5 127 6
      vertex 0 126.5 5.5
    endloop
  endfacet
  facet normal 0 0 1
    outer loop
      vertex 39.5 39.5 6
      vertex 11.312154975561809 127 6
      vertex 0.5 127 6
    endloop
  endfacet
  facet normal 0 0 1
    outer loop
      vertex 39.5 39.5 6
      vertex 11.32813506858974 127 6
      vertex 11.312154975561809 127 6
    endloop
  endfacet
  facet normal 0 0 1
    outer loop
      vertex 39.5 39.5 6
      vertex 28.687845024438193 127 6
      vertex 11.32813506858974 127 6
    endloop
  endfacet
  facet normal 0 0 1
    outer loop
      vertex 39.5 39.5 6
      vertex 39.5 127 6
      vertex 28.687845024438193 127 6
    endloop
  endfacet
  facet normal 0.7071067811865475 0 0.7071067811865475
    outer loop
      vertex 39.5 39.5 6
      vertex 40 126.5 5.5
      vertex 39.5 127 6
    endloop
  endfacet
  facet normal 0 0 -1
    outer loop
      vertex 144.31320483952413 45.012000000000015 0
      vertex 144.3121549755618 45 0
      vertex 132.5 45 0
    endloop
  endfacet
  facet normal -0.7071067811865476 0 -0.7071067811865476
    outer loop
      vertex 132 132 0.5
      vertex 132.5 45 0
      vertex 132 45.5 0.5
    endloop
  endfacet
  facet normal 0 0 -1
    outer loop
      vertex 171.5 132.5 0
      vertex 144.31320483952413 45.012000000000015 0
      vertex 132.5 45 0
    endloop
  endfacet
  facet normal 0 0 -1
    outer loop
      vertex 171.5 132.5 0
      vertex 159.68679516047587 45.012000000000015 0
      vertex 144.31320483952413 45.012000000000015 0
    endloop
  endfacet
  facet normal 0 0 -1
    outer loop
      vertex 171.5 132.5 0
      vertex 159.6878450244382 45 0
      vertex 159.68679516047587 45.012000000000015 0
    endloop
  endfacet
  facet normal 0 0 -1
    outer loop
      vertex 171.5 132.5 0
      vertex 171.5 45 0
      vertex 159.6878450244382 45 0
    endloop
  endfacet
  facet normal -0.7071067811865476 -0.7071067811865476 0
    outer loop
      vertex 132.5 45 0
      vertex 132.5 45 6
      vertex 132 45.5 0.5
    endloop
  endfacet
  facet normal 0 -1 0
    outer loop
      vertex 144.3121549755618 45 0
      vertex 132.5 45 6
      vertex 132.5 45 0
    endloop
  endfacet
  facet normal 0 -1 0
    outer loop
      vertex 171.5 45 0
      vertex 160.6878450244382 45 6
      vertex 159.6878450244382 45 0
    endloop
  endfacet
  facet normal 0.7071067811865476 -0.7071067811865476 0
    outer loop
      vertex 171.5 45 0
      vertex 172 45.5 0.5
      vertex 171.5 45 6
    endloop
  endfacet
  facet normal -0.7071067811865475 -0.7071067811865475 0
    outer loop
      vertex 132 45.5 0.5
      vertex 132.5 45 6
      vertex 132 45.5 5.5
    endloop
  endfacet
  facet normal 0 -1 0
    outer loop
      vertex 144.3121549755618 45 0
      vertex 143.3121549755618 45 6
      vertex 132.5 45 6
    endloop
  endfacet
  facet normal -1 0 0
    outer loop
      vertex 132 132 5.5
      vertex 132 45.5 0.5
      vertex 132 45.5 5.5
    endloop
  endfacet
  facet normal 0 -1 0
    outer loop
      vertex 171.5 45 0
      vertex 171.5 45 6
      vertex 160.6878450244382 45 6
    endloop
  endfacet
  facet normal 0.7071067811865475 -0.7071067811865475 0
    outer loop
      vertex 172 45.5 0.5
      vertex 172 45.5 5.5
      vertex 171.5 45 6
    endloop
  endfacet
  facet normal -0.7071067811865475 0 0.7071067811865475
    outer loop
      vertex 132.5 132.5 6
      vertex 132 45.5 5.5
      vertex 132.5 45 6
    endloop
  endfacet
  facet normal 0 0 1
    outer loop
      vertex 132.5 132.5 6
      vertex 132.5 45 6
      vertex 143.3121549755618 45 6
    endloop
  endfacet
  facet normal 0 0 1
    outer loop
      vertex 132.5 132.5 6
      vertex 143.3121549755618 45 6
      vertex 160.67186493141025 45 6
    endloop
  endfacet
  facet normal 0 0 1
    outer loop
      vertex 132.5 132.5 6
      vertex 160.67186493141025 45 6
      vertex 160.6878450244382 45 6
    endloop
  endfacet
  facet normal 0 0 1
    outer loop
      vertex 132.5 132.5 6
      vertex 160.6878450244382 45 6
      vertex 171.5 45 6
    endloop
  endfacet
  facet normal 0.7071067811865475 7.205163833941922e-17 0.7071067811865476
    outer loop
      vertex 171.84584980237153 132.5 5.654150197628459
      vertex 171.5 45 6
      vertex 172 45.5 5.5
    endloop
  endfacet
  facet normal -0.7071067811865475 0 -0.7071067811865475
    outer loop
      vertex 132.5 132.5 0
      vertex 132.5 45 0
      vertex 132 132 0.5
    endloop
  endfacet
  facet normal 0 0 -1
    outer loop
      vertex 171.5 171.5 0
      vertex 132.5 45 0
      vertex 132.5 132.5 0
    endloop
  endfacet
  facet normal 0.7071067811865476 0 -0.7071067811865476
    outer loop
      vertex 172 171.5 0.5
      vertex 172 45.5 0.5
      vertex 171.5 45 0
    endloop
  endfacet
  facet normal 0 0 -1
    outer loop
      vertex 171.5 171.5 0
      vertex 171.5 132.5 0
      vertex 132.5 45 0
    endloop
  endfacet
  facet normal 0.7071067811865475 0 -0.7071067811865475
    outer loop
      vertex 172 171.5 0.5
      vertex 171.5 45 0
      vertex 171.5 132.5 0
    endloop
  endfacet
  facet normal -1 0 0
    outer loop
      vertex 132 132 0.5
      vertex 132 45.5 0.5
      vertex 132 132 5.5
    endloop
  endfacet
  facet normal 0 0 -1
    outer loop
      vertex 171.5 171.5 0
      vertex 132.5 132.5 0
      vertex 132.5 159.47628458498025 0
    endloop
  endfacet
  facet normal 0 0 -1
    outer loop
      vertex 171.5 171.5 0
      vertex 132.5 159.47628458498025 0
      vertex 132.5 171.5 0
    endloop
  endfacet
  facet normal 0 0.7071067811865476 -0.7071067811865476
    outer loop
      vertex 171.5 172 0.5
      vertex 132.5 171.5 0
      vertex 132.5 172 0.5
    endloop
  endfacet
  facet normal 0 0.7071067811865476 -0.7071067811865476
    outer loop
      vertex 171.5 171.5 0
      vertex 132.5 171.5 0
      vertex 171.5 172 0.5
    endloop
  endfacet
  facet normal 0 1 0
    outer loop
      vertex 171.5 172 0.5
      vertex 132.5 172 0.5
      vertex 132.5 172 5.5
    endloop
  endfacet
  facet normal 1 0 0
    outer loop
      vertex 172 171.5 0.5
      vertex 172 171.5 5.5
      vertex 172 45.5 0.5
    endloop
  endfacet
  facet normal 1 0 0
    outer loop
      vertex 172 171.5 5.5
      vertex 172 45.5 5.5
      vertex 172 45.5 0.5
    endloop
  endfacet
  facet normal -0.7071067811865476 0 0.7071067811865476
    outer loop
      vertex 132.5 132.5 6
      vertex 132 132 5.5
      vertex 132 45.5 5.5
    endloop
  endfacet
  facet normal 0 0 1
    outer loop
      vertex 141.690332326284 141.690332326284 6
      vertex 132.5 132.5 6
      vertex 171.5 45 6
    endloop
  endfacet
  facet normal 0 0 1
    outer loop
      vertex 141.690332326284 141.690332326284 6
      vertex 171.5 45 6
      vertex 171.5 132.5 6
    endloop
  endfacet
  facet normal 0.7071067811865566 -1.2730958614640684e-20 0.7071067811865384
    outer loop
      vertex 171.84584980237153 132.5 5.654150197628459
      vertex 171.5 132.5 6
      vertex 171.5 45 6
    endloop
  endfacet
  facet normal 0.7071067811865271 0 0.7071067811865679
    outer loop
      vertex 172 171.5 5.5
      vertex 171.84584980237153 132.5 5.654150197628459
      vertex 172 45.5 5.5
    endloop
  endfacet
  facet normal 0 1 0
    outer loop
      vertex 171.5 172 0.5
      vertex 132.5 172 5.5
      vertex 171.5 172 5.5
    endloop
  endfacet
  facet normal 0 0 1
    outer loop
      vertex 171.5 171.5 6
      vertex 132.5 171.5 6
      vertex 141.690332326284 141.690332326284 6
    endloop
  endfacet
  facet normal 0 0 1
    outer loop
      vertex 171.5 171.5 6
      vertex 141.690332326284 141.690332326284 6
      vertex 171.5 132.5 6
    endloop
  endfacet
  facet normal -0.5773502691896258 -0.5773502691896258 -0.5773502691896258
    outer loop
      vertex 0.5 0.5 0
      vertex 0.5 0 0.5
      vertex 0 0.5 0.5
    endloop
  endfacet
  facet normal -0.7071067811865476 0 -0.7071067811865476
    outer loop
      vertex 0.5 0.5 0
      vertex 0 0.5 0.5
      vertex 0.5 39.5 0
    endloop
  endfacet
  facet normal -0.7071067811865475 -0.7071067811865475 0
    outer loop
      vertex 0 0.5 0.5
      vertex 0.5 0 0.5
      vertex 0.5 0 5.5
    endloop
  endfacet
  facet normal 0 0 -1
    outer loop
      vertex 39.5 0.5 0
      vertex 39.5 12.523715415019762 0
      vertex 127 0.5 0
    endloop
  endfacet
  facet normal 0 -0.7071067811865476 -0.7071067811865476
    outer loop
      vertex 39.5 0.5 0
      vertex 126.5 0 0.5
      vertex 39.5 0 0.5
    endloop
  endfacet
  facet normal 0 0 -1
    outer loop
      vertex 39.5 12.523715415019762 0
      vertex 39.5 39.5 0
      vertex 127 39.5 0
    endloop
  endfacet
  facet normal 0 0.7071067811865475 -0.7071067811865475
    outer loop
      vertex 39.5 39.5 0
      vertex 40 40 0.5
      vertex 127 39.5 0
    endloop
  endfacet
  facet normal 0 1 0
    outer loop
      vertex 40 40 0.5
      vertex 40 40 5.5
      vertex 126.5 40 0.5
    endloop
  endfacet
  facet normal -0.7071067811865475 -0.7071067811865475 0
    outer loop
      vertex 0 0.5 0.5
      vertex 0.5 0 5.5
      vertex 0 0.5 5.5
    endloop
  endfacet
  facet normal -0.5773502691896258 -0.5773502691896258 0.5773502691896258
    outer loop
      vertex 0 0.5 5.5
      vertex 0.5 0 5.5
      vertex 0.5 0.5 6
    endloop
  endfacet
  facet normal -0.7071067811865476 0 0.7071067811865476
    outer loop
      vertex 0 0.5 5.5
      vertex 0.5 0.5 6
      vertex 0.5 39.5 6
    endloop
  endfacet
  facet normal 0 -0.7071067811865476 0.7071067811865476
    outer loop
      vertex 0.5 0 5.5
      vertex 39.5 0.5 6
      vertex 0.5 0.5 6
    endloop
  endfacet
  facet normal -0.707106781186547 -1.1640538961084113e-17 0.707106781186548
    outer loop
      vertex 0 0.5 5.5
      vertex 0.5 39.5 6
      vertex 0.1541501976284585 39.5 5.654150197628459
    endloop
  endfacet
  facet normal 0 -1 0
    outer loop
      vertex 39.5 0 0.5
      vertex 126.5 0 5.5
      vertex 39.5 0 5.5
    endloop
  endfacet
  facet normal 0 -0.7071067811865476 0.7071067811865476
    outer loop
      vertex 0.5 0 5.5
      vertex 39.5 0 5.5
      vertex 127 0.5 6
    endloop
  endfacet
  facet normal 0 -0.7071067811865475 0.7071067811865475
    outer loop
      vertex 0.5 0 5.5
      vertex 127 0.5 6
      vertex 39.5 0.5 6
    endloop
  endfacet
  facet normal 0 0 1
    outer loop
      vertex 30.309667673716014 30.309667673716014 6
      vertex 39.5 0.5 6
      vertex 127 0.5 6
    endloop
  endfacet
  facet normal 0 0 1
    outer loop
      vertex 30.309667673716014 30.309667673716014 6
      vertex 127 0.5 6
      vertex 39.5 39.5 6
    endloop
  endfacet
  facet normal 0 0.7071067811865476 0.7071067811865476
    outer loop
      vertex 39.5 39.5 6
      vertex 126.5 40 5.5
      vertex 40 40 5.5
    endloop
  endfacet
  facet normal 0 0 -1
    outer loop
      vertex 39.5 12.523715415019762 0
      vertex 111.99199999999999 10.999125113364741 0
      vertex 127 0.5 0
    endloop
  endfacet
  facet normal 0 0 -1
    outer loop
      vertex 39.5 12.523715415019762 0
      vertex 111.99199999999999 29.00087488663526 0
      vertex 111.99199999999999 10.999125113364741 0
    endloop
  endfacet
  facet normal 0 -0.7071067811865475 -0.7071067811865475
    outer loop
      vertex 39.5 0.5 0
      vertex 127 0.5 0
      vertex 126.5 0 0.5
    endloop
  endfacet
  facet normal 0 0 -1
    outer loop
      vertex 39.5 12.523715415019762 0
      vertex 127 39.5 0
      vertex 111.99199999999999 29.00087488663526 0
    endloop
  endfacet
  facet normal 0 0.7071067811865476 -0.7071067811865476
    outer loop
      vertex 40 40 0.5
      vertex 126.5 40 0.5
      vertex 127 39.5 0
    endloop
  endfacet
  facet normal 0 0 -1
    outer loop
      vertex 111.99199999999999 10.999125113364741 0
      vertex 127 12.312154975561807 0
      vertex 127 0.5 0
    endloop
  endfacet
  facet normal 0 0 -1
    outer loop
      vertex 111.99199999999999 29.00087488663526 0
      vertex 127 39.5 0
      vertex 127 27.687845024438193 0
    endloop
  endfacet
  facet normal 1 0 0
    outer loop
      vertex 127 27.687845024438193 0
      vertex 127 39.5 0
      vertex 127 27.687845024438193 0.002
    endloop
  endfacet
  facet normal 0 -1 0
    outer loop
      vertex 39.5 0 0.5
      vertex 126.5 0 0.5
      vertex 126.5 0 5.5
    endloop
  endfacet
  facet normal 0.7071067811865476 -0.7071067811865476 0
    outer loop
      vertex 127 0.5 0
      vertex 127 0.5 6
      vertex 126.5 0 0.5
    endloop
  endfacet
  facet normal 1 0 0
    outer loop
      vertex 127 0.5 0
      vertex 127 12.312154975561807 0
      vertex 127 11.312488308895142 6
    endloop
  endfacet
  facet normal 1 0 0
    outer loop
      vertex 127 12.312154975561807 0
      vertex 127 12.312154975561807 0.002
      vertex 127 11.312488308895142 6
    endloop
  endfacet
  facet normal 1 0 0
    outer loop
      vertex 127 27.687845024438193 0.002
      vertex 127 39.5 0
      vertex 127 39.5 6
    endloop
  endfacet
  facet normal 0.7071067811865476 0.7071067811865476 0
    outer loop
      vertex 127 39.5 0
      vertex 126.5 40 0.5
      vertex 127 39.5 6
    endloop
  endfacet
  facet normal 0 1 0
    outer loop
      vertex 40 40 5.5
      vertex 126.5 40 5.5
      vertex 126.5 40 0.5
    endloop
  endfacet
  facet normal 0.7071067811865475 -0.7071067811865475 0
    outer loop
      vertex 126.5 0 0.5
      vertex 127 0.5 6
      vertex 126.5 0 5.5
    endloop
  endfacet
  facet normal 1 0 0
    outer loop
      vertex 127 0.5 0
      vertex 127 11.312488308895142 6
      vertex 127 0.5 6
    endloop
  endfacet
  facet normal 1 0 0
    outer loop
      vertex 127 27.687845024438193 0.002
      vertex 127 39.5 6
      vertex 127 28.68751169110486 6
    endloop
  endfacet
  facet normal 0.7071067811865475 0.7071067811865475 0
    outer loop
      vertex 126.5 40 0.5
      vertex 126.5 40 5.5
      vertex 127 39.5 6
    endloop
  endfacet
  facet normal 0 0 1
    outer loop
      vertex 39.5 39.5 6
      vertex 127 0.5 6
      vertex 111.99199999999999 9.999458446698075 6
    endloop
  endfacet
  facet normal 0 -0.7071067811865476 0.7071067811865476
    outer loop
      vertex 39.5 0 5.5
      vertex 126.5 0 5.5
      vertex 127 0.5 6
    endloop
  endfacet
  facet normal 0 0 1
    outer loop
      vertex 39.5 39.5 6
      vertex 111.99199999999999 9.999458446698075 6
      vertex 111.99199999999999 30.000541553301925 6
    endloop
  endfacet
  facet normal 0 0 1
    outer loop
      vertex 39.5 39.5 6
      vertex 111.99199999999999 30.000541553301925 6
      vertex 127 39.5 6
    endloop
  endfacet
  facet normal 0 0.7071067811865475 0.7071067811865475
    outer loop
      vertex 39.5 39.5 6
      vertex 127 39.5 6
      vertex 126.5 40 5.5
    endloop
  endfacet
  facet normal 0 0 1
    outer loop
      vertex 111.99199999999999 9.999458446698075 6
      vertex 127 0.5 6
      vertex 127 11.312488308895142 6
    endloop
  endfacet
  facet normal 0 0 1
    outer loop
      vertex 111.99199999999999 30.000541553301925 6
      vertex 127 28.68751169110486 6
      vertex 127 39.5 6
    endloop
  endfacet
  facet normal -1 0 0
    outer loop
      vertex 45 144.3121549755618 0
      vertex 45 132.5 0
      vertex 45 144.3121549755618 0.002
    endloop
  endfacet
  facet normal 0 0 -1
    outer loop
      vertex 60.00800000000001 142.99912511336476 0
      vertex 45 132.5 0
      vertex 45 144.3121549755618 0
    endloop
  endfacet
  facet normal 0 0 -1
    outer loop
      vertex 60.00800000000001 161.00087488663524 0
      vertex 45 159.6878450244382 0
      vertex 45 171.5 0
    endloop
  endfacet
  facet normal 0 -0.7071067811865476 -0.7071067811865476
    outer loop
      vertex 132 132 0.5
      vertex 45.5 132 0.5
      vertex 45 132.5 0
    endloop
  endfacet
  facet normal 0 0 -1
    outer loop
      vertex 132.5 159.47628458498025 0
      vertex 45 132.5 0
      vertex 60.00800000000001 142.99912511336476 0
    endloop
  endfacet
  facet normal 0 0.7071067811865475 -0.7071067811865475
    outer loop
      vertex 132.5 171.5 0
      vertex 45 171.5 0
      vertex 45.5 172 0.5
    endloop
  endfacet
  facet normal 0 0 -1
    outer loop
      vertex 132.5 159.47628458498025 0
      vertex 60.00800000000001 142.99912511336476 0
      vertex 60.00800000000001 161.00087488663524 0
    endloop
  endfacet
  facet normal 0 0 -1
    outer loop
      vertex 132.5 159.47628458498025 0
      vertex 60.00800000000001 161.00087488663524 0
      vertex 45 171.5 0
    endloop
  endfacet
  facet normal -0.7071067811865476 -0.7071067811865476 0
    outer loop
      vertex 45 132.5 0
      vertex 45.5 132 0.5
      vertex 45 132.5 6
    endloop
  endfacet
  facet normal -1 0 0
    outer loop
      vertex 45 144.3121549755618 0.002
      vertex 45 132.5 0
      vertex 45 132.5 6
    endloop
  endfacet
  facet normal -1 0 0
    outer loop
      vertex 45 159.6878450244382 0
      vertex 45 159.6878450244382 0.002
      vertex 45 160.68751169110485 6
    endloop
  endfacet
  facet normal -1 0 0
    outer loop
      vertex 45 171.5 0
      vertex 45 159.6878450244382 0
      vertex 45 160.68751169110485 6
    endloop
  endfacet
  facet normal -0.7071067811865476 0.7071067811865476 0
    outer loop
      vertex 45 171.5 0
      vertex 45 171.5 6
      vertex 45.5 172 0.5
    endloop
  endfacet
  facet normal 0 1 0
    outer loop
      vertex 132.5 172 0.5
      vertex 45.5 172 0.5
      vertex 45.5 172 5.5
    endloop
  endfacet
  facet normal -0.7071067811865475 -0.7071067811865475 0
    outer loop
      vertex 45.5 132 0.5
      vertex 45.5 132 5.5
      vertex 45 132.5 6
    endloop
  endfacet
  facet normal -1 0 0
    outer loop
      vertex 45 144.3121549755618 0.002
      vertex 45 132.5 6
      vertex 45 143.31248830889513 6
    endloop
  endfacet
  facet normal -1 0 0
    outer loop
      vertex 45 171.5 0
      vertex 45 160.68751169110485 6
      vertex 45 171.5 6
    endloop
  endfacet
  facet normal -0.7071067811865475 0.7071067811865475 0
    outer loop
      vertex 45.5 172 0.5
      vertex 45 171.5 6
      vertex 45.5 172 5.5
    endloop
  endfacet
  facet normal 0 -1 0
    outer loop
      vertex 132 132 5.5
      vertex 45.5 132 5.5
      vertex 45.5 132 0.5
    endloop
  endfacet
  facet normal 0 0 1
    outer loop
      vertex 60.00800000000001 141.99945844669807 6
      vertex 45 143.31248830889513 6
      vertex 45 132.5 6
    endloop
  endfacet
  facet normal 0 0 1
    outer loop
      vertex 60.00800000000001 162.00054155330193 6
      vertex 45 171.5 6
      vertex 45 160.68751169110485 6
    endloop
  endfacet
  facet normal 0 -0.7071067811865475 0.7071067811865475
    outer loop
      vertex 132.5 132.5 6
      vertex 45 132.5 6
      vertex 45.5 132 5.5
    endloop
  endfacet
  facet normal 0 0 1
    outer loop
      vertex 132.5 132.5 6
      vertex 60.00800000000001 141.99945844669807 6
      vertex 45 132.5 6
    endloop
  endfacet
  facet normal 0 0 1
    outer loop
      vertex 132.5 132.5 6
      vertex 60.00800000000001 162.00054155330193 6
      vertex 60.00800000000001 141.99945844669807 6
    endloop
  endfacet
  facet normal 0 0.7071067811865476 0.7071067811865476
    outer loop
      vertex 132.5 172 5.5
      vertex 45.5 172 5.5
      vertex 45 171.5 6
    endloop
  endfacet
  facet normal 0 0 1
    outer loop
      vertex 132.5 132.5 6
      vertex 45 171.5 6
      vertex 60.00800000000001 162.00054155330193 6
    endloop
  endfacet
  facet normal 0 -0.7071067811865475 -0.7071067811865475
    outer loop
      vertex 132.5 132.5 0
      vertex 132 132 0.5
      vertex 45 132.5 0
    endloop
  endfacet
  facet normal 0 0 -1
    outer loop
      vertex 132.5 159.47628458498025 0
      vertex 132.5 132.5 0
      vertex 45 132.5 0
    endloop
  endfacet
  facet normal 0 0 -1
    outer loop
      vertex 132.5 171.5 0
      vertex 132.5 159.47628458498025 0
      vertex 45 171.5 0
    endloop
  endfacet
  facet normal 0 0.7071067811865476 -0.7071067811865476
    outer loop
      vertex 132.5 171.5 0
      vertex 45.5 172 0.5
      vertex 132.5 172 0.5
    endloop
  endfacet
  facet normal 0 -1 0
    outer loop
      vertex 132 132 0.5
      vertex 132 132 5.5
      vertex 45.5 132 0.5
    endloop
  endfacet
  facet normal 0.7071067811865476 0 -0.7071067811865476
    outer loop
      vertex 171.5 171.5 0
      vertex 172 171.5 0.5
      vertex 171.5 132.5 0
    endloop
  endfacet
  facet normal 0.5773502691896258 0.5773502691896258 -0.5773502691896258
    outer loop
      vertex 171.5 171.5 0
      vertex 171.5 172 0.5
      vertex 172 171.5 0.5
    endloop
  endfacet
  facet normal 0.7071067811865475 0.7071067811865475 0
    outer loop
      vertex 172 171.5 0.5
      vertex 171.5 172 0.5
      vertex 171.5 172 5.5
    endloop
  endfacet
  facet normal 0 1 0
    outer loop
      vertex 132.5 172 0.5
      vertex 45.5 172 5.5
      vertex 132.5 172 5.5
    endloop
  endfacet
  facet normal 0 -0.7071067811865476 0.7071067811865476
    outer loop
      vertex 132.5 132.5 6
      vertex 45.5 132 5.5
      vertex 132 132 5.5
    endloop
  endfacet
  facet normal 0 0 1
    outer loop
      vertex 141.690332326284 141.690332326284 6
      vertex 45 171.5 6
      vertex 132.5 132.5 6
    endloop
  endfacet
  facet normal 0 0 1
    outer loop
      vertex 141.690332326284 141.690332326284 6
      vertex 132.5 171.5 6
      vertex 45 171.5 6
    endloop
  endfacet
  facet normal 0 0.7071067811865476 0.7071067811865476
    outer loop
      vertex 171.5 172 5.5
      vertex 132.5 172 5.5
      vertex 45 171.5 6
    endloop
  endfacet
  facet normal 0 0.7071067811865475 0.7071067811865475
    outer loop
      vertex 171.5 172 5.5
      vertex 45 171.5 6
      vertex 132.5 171.5 6
    endloop
  endfacet
  facet normal 0.7071067811865475 0.7071067811865475 0
    outer loop
      vertex 172 171.5 0.5
      vertex 171.5 172 5.5
      vertex 172 171.5 5.5
    endloop
  endfacet
  facet normal 0.7071067811865566 -2.3281077922168536e-16 0.7071067811865384
    outer loop
      vertex 172 171.5 5.5
      vertex 171.5 132.5 6
      vertex 171.84584980237153 132.5 5.654150197628459
    endloop
  endfacet
  facet normal 0 0.7071067811865476 0.7071067811865476
    outer loop
      vertex 171.5 172 5.5
      vertex 132.5 171.5 6
      vertex 171.5 171.5 6
    endloop
  endfacet
  facet normal 0.7071067811865476 0 0.7071067811865476
    outer loop
      vertex 172 171.5 5.5
      vertex 171.5 171.5 6
      vertex 171.5 132.5 6
    endloop
  endfacet
  facet normal 0.5773502691896258 0.5773502691896258 0.5773502691896258
    outer loop
      vertex 172 171.5 5.5
      vertex 171.5 172 5.5
      vertex 171.5 171.5 6
    endloop
  endfacet
  facet normal -0.9961946980917514 -0.08715574274759036 0
    outer loop
      vertex 12.313204839524118 126.98799999999999 -0.009999999999999787
      vertex 12.313204839524118 126.98799999999999 0
      vertex 12.312154975561807 127 0
    endloop
  endfacet
  facet normal 0 -1 0
    outer loop
      vertex 12.313204839524118 126.98799999999999 -0.009999999999999787
      vertex 27.68679516047588 126.98799999999999 0
      vertex 12.313204839524118 126.98799999999999 0
    endloop
  endfacet
  facet normal 0 -1 0
    outer loop
      vertex 12.313204839524118 126.98799999999999 -0.009999999999999787
      vertex 27.68679516047588 126.98799999999999 -0.009999999999999787
      vertex 27.68679516047588 126.98799999999999 0
    endloop
  endfacet
  facet normal -0.9961946980917455 -0.08715574274765818 8.201957980619747e-14
    outer loop
      vertex 12.313204839524118 126.98799999999999 -0.009999999999999787
      vertex 12.312154975561807 127 0
      vertex 10.999125113364741 142.00799999999998 0
    endloop
  endfacet
  facet normal -0.9961946980917454 -0.08715574274765812 8.28881463978627e-15
    outer loop
      vertex 12.313204839524118 126.98799999999999 -0.009999999999999787
      vertex 10.999125113364741 142.00799999999998 0
      vertex 10.999125113364741 142.00799999999998 -0.009999999999999787
    endloop
  endfacet
  facet normal 0 0 -1
    outer loop
      vertex 12.313204839524118 126.98799999999999 -0.009999999999999787
      vertex 10.999125113364741 142.00799999999998 -0.009999999999999787
      vertex 27.68679516047588 126.98799999999999 -0.009999999999999787
    endloop
  endfacet
  facet normal 0 1 0
    outer loop
      vertex 10.999125113364741 142.00799999999998 -0.009999999999999787
      vertex 10.999125113364741 142.00799999999998 0
      vertex 29.00087488663526 142.00799999999998 -0.009999999999999787
    endloop
  endfacet
  facet normal 0 0 -1
    outer loop
      vertex 10.999125113364741 142.00799999999998 -0.009999999999999787
      vertex 29.00087488663526 142.00799999999998 -0.009999999999999787
      vertex 27.68679516047588 126.98799999999999 -0.009999999999999787
    endloop
  endfacet
  facet normal 0.9961946980917454 -0.08715574274765812 0
    outer loop
      vertex 27.68679516047588 126.98799999999999 -0.009999999999999787
      vertex 29.00087488663526 142.00799999999998 -0.009999999999999787
      vertex 27.68679516047588 126.98799999999999 0
    endloop
  endfacet
  facet normal 0.9961946980917514 -0.08715574274759036 1.0258242489816203e-10
    outer loop
      vertex 27.68679516047588 126.98799999999999 0
      vertex 29.00087488663526 142.00799999999998 -0.009999999999999787
      vertex 27.687845024438193 127 0
    endloop
  endfacet
  facet normal 0.9961946980917455 -0.0871557427476582 -8.743770555760597e-15
    outer loop
      vertex 27.687845024438193 127 0
      vertex 29.00087488663526 142.00799999999998 -0.009999999999999787
      vertex 29.00087488663526 142.00799999999998 0
    endloop
  endfacet
  facet normal 0 1 0
    outer loop
      vertex 10.999125113364741 142.00799999999998 0
      vertex 29.00087488663526 142.00799999999998 0
      vertex 29.00087488663526 142.00799999999998 -0.009999999999999787
    endloop
  endfacet
  facet normal -0.9827412810341457 -0.0859787212694319 -0.16379021350569065
    outer loop
      vertex 12.312154975561807 127 0
      vertex 11.312154975561809 127 6
      vertex 10.999125113364741 142.00799999999998 0
    endloop
  endfacet
  facet normal 0 1 0
    outer loop
      vertex 10.999125113364741 142.00799999999998 0
      vertex 9.999125113364741 142.00799999999998 6
      vertex 29.00087488663526 142.00799999999998 0
    endloop
  endfacet
  facet normal 0.9827412810341457 -0.0859787212694319 -0.16379021350569092
    outer loop
      vertex 27.687845024438193 127 0
      vertex 29.00087488663526 142.00799999999998 0
      vertex 30.00087488663526 142.00799999999998 6
    endloop
  endfacet
  facet normal -0.9827412810341457 -0.08597872126943201 -0.16379021350569095
    outer loop
      vertex 10.999125113364741 142.00799999999998 0
      vertex 11.312154975561809 127 6
      vertex 9.999125113364741 142.00799999999998 6
    endloop
  endfacet
  facet normal 0.9827412810341457 -0.0859787212694319 -0.16379021350569095
    outer loop
      vertex 27.687845024438193 127 0
      vertex 30.00087488663526 142.00799999999998 6
      vertex 28.687845024438193 127 6
    endloop
  endfacet
  facet normal 0 1 0
    outer loop
      vertex 29.00087488663526 142.00799999999998 0
      vertex 9.999125113364741 142.00799999999998 6
      vertex 30.00087488663526 142.00799999999998 6
    endloop
  endfacet
  facet normal 0 0 1
    outer loop
      vertex 11.32813506858974 127 6
      vertex 9.999125113364741 142.00799999999998 6
      vertex 11.312154975561809 127 6
    endloop
  endfacet
  facet normal 0 0 1
    outer loop
      vertex 11.32813506858974 127 6
      vertex 30.00087488663526 142.00799999999998 6
      vertex 9.999125113364741 142.00799999999998 6
    endloop
  endfacet
  facet normal 0 0 1
    outer loop
      vertex 11.32813506858974 127 6
      vertex 28.687845024438193 127 6
      vertex 30.00087488663526 142.00799999999998 6
    endloop
  endfacet
  facet normal 0 -1 0
    outer loop
      vertex 161.00087488663524 29.99200000000002 0
      vertex 142.99912511336476 29.99200000000002 0
      vertex 142.99912511336476 29.99200000000002 -0.009999999999999787
    endloop
  endfacet
  facet normal -0.9961946980917455 0.08715574274765749 -9.309739830384943e-15
    outer loop
      vertex 144.3121549755618 45 0
      vertex 142.99912511336476 29.99200000000002 -0.009999999999999787
      vertex 142.99912511336476 29.99200000000002 0
    endloop
  endfacet
  facet normal -0.9961946980917454 0.08715574274765812 0
    outer loop
      vertex 144.31320483952413 45.012000000000015 -0.009999999999999787
      vertex 142.99912511336476 29.99200000000002 -0.009999999999999787
      vertex 144.31320483952413 45.012000000000015 0
    endloop
  endfacet
  facet normal -0.9961946980916746 0.08715574274846845 -1.2264012505043812e-9
    outer loop
      vertex 144.31320483952413 45.012000000000015 0
      vertex 142.99912511336476 29.99200000000002 -0.009999999999999787
      vertex 144.3121549755618 45 0
    endloop
  endfacet
  facet normal 0 0 -1
    outer loop
      vertex 161.00087488663524 29.99200000000002 -0.009999999999999787
      vertex 142.99912511336476 29.99200000000002 -0.009999999999999787
      vertex 144.31320483952413 45.012000000000015 -0.009999999999999787
    endloop
  endfacet
  facet normal 0 -1 0
    outer loop
      vertex 161.00087488663524 29.99200000000002 -0.009999999999999787
      vertex 161.00087488663524 29.99200000000002 0
      vertex 142.99912511336476 29.99200000000002 -0.009999999999999787
    endloop
  endfacet
  facet normal 0 0 -1
    outer loop
      vertex 159.68679516047587 45.012000000000015 -0.009999999999999787
      vertex 161.00087488663524 29.99200000000002 -0.009999999999999787
      vertex 144.31320483952413 45.012000000000015 -0.009999999999999787
    endloop
  endfacet
  facet normal 0.9961946980917454 0.08715574274765812 8.28881463978627e-15
    outer loop
      vertex 159.68679516047587 45.012000000000015 -0.009999999999999787
      vertex 161.00087488663524 29.99200000000002 0
      vertex 161.00087488663524 29.99200000000002 -0.009999999999999787
    endloop
  endfacet
  facet normal 0.9961946980917455 0.08715574274765749 -9.805877333034887e-13
    outer loop
      vertex 159.68679516047587 45.012000000000015 -0.009999999999999787
      vertex 159.6878450244382 45 0
      vertex 161.00087488663524 29.99200000000002 0
    endloop
  endfacet
  facet normal -0.9827412810341457 0.08597872126943121 -0.16379021350569095
    outer loop
      vertex 144.3121549755618 45 0
      vertex 142.99912511336476 29.99200000000002 0
      vertex 141.99912511336476 29.99200000000002 6
    endloop
  endfacet
  facet normal 0 -1 0
    outer loop
      vertex 161.00087488663524 29.99200000000002 0
      vertex 162.00087488663524 29.99200000000002 6
      vertex 142.99912511336476 29.99200000000002 0
    endloop
  endfacet
  facet normal 0.9827412810341457 0.08597872126943121 -0.16379021350569095
    outer loop
      vertex 159.6878450244382 45 0
      vertex 160.6878450244382 45 6
      vertex 161.00087488663524 29.99200000000002 0
    endloop
  endfacet
  facet normal 0 1 0
    outer loop
      vertex 159.68679516047587 45.012000000000015 -0.009999999999999787
      vertex 144.31320483952413 45.012000000000015 -0.009999999999999787
      vertex 144.31320483952413 45.012000000000015 0
    endloop
  endfacet
  facet normal 0 1 0
    outer loop
      vertex 159.68679516047587 45.012000000000015 -0.009999999999999787
      vertex 144.31320483952413 45.012000000000015 0
      vertex 159.68679516047587 45.012000000000015 0
    endloop
  endfacet
  facet normal 0.9961946980916746 0.08715574274846845 0
    outer loop
      vertex 159.68679516047587 45.012000000000015 -0.009999999999999787
      vertex 159.68679516047587 45.012000000000015 0
      vertex 159.6878450244382 45 0
    endloop
  endfacet
  facet normal 0 -1 0
    outer loop
      vertex 142.99912511336476 29.99200000000002 0
      vertex 162.00087488663524 29.99200000000002 6
      vertex 141.99912511336476 29.99200000000002 6
    endloop
  endfacet
  facet normal -0.9827412810341457 0.08597872126943121 -0.16379021350569095
    outer loop
      vertex 144.3121549755618 45 0
      vertex 141.99912511336476 29.99200000000002 6
      vertex 143.3121549755618 45 6
    endloop
  endfacet
  facet normal 0.9827412810341457 0.08597872126943121 -0.16379021350569095
    outer loop
      vertex 161.00087488663524 29.99200000000002 0
      vertex 160.6878450244382 45 6
      vertex 162.00087488663524 29.99200000000002 6
    endloop
  endfacet
  facet normal 0 0 1
    outer loop
      vertex 160.67186493141025 45 6
      vertex 143.3121549755618 45 6
      vertex 141.99912511336476 29.99200000000002 6
    endloop
  endfacet
  facet normal 0 0 1
    outer loop
      vertex 160.67186493141025 45 6
      vertex 141.99912511336476 29.99200000000002 6
      vertex 162.00087488663524 29.99200000000002 6
    endloop
  endfacet
  facet normal 0 0 1
    outer loop
      vertex 160.67186493141025 45 6
      vertex 162.00087488663524 29.99200000000002 6
      vertex 160.6878450244382 45 6
    endloop
  endfacet
  facet normal 1 0 0
    outer loop
      vertex 111.99199999999999 10.999125113364741 0
      vertex 111.99199999999999 29.00087488663526 0.002
      vertex 111.99199999999999 10.999125113364741 0.002
    endloop
  endfacet
  facet normal -0.08715574274765801 0.9961946980917455 0
    outer loop
      vertex 111.99199999999999 10.999125113364741 0
      vertex 111.99199999999999 10.999125113364741 0.002
      vertex 127 12.312154975561807 0
    endloop
  endfacet
  facet normal -0.08715574274765801 0.9961946980917455 1.5736089533578418e-14
    outer loop
      vertex 111.99199999999999 10.999125113364741 0.002
      vertex 127 12.312154975561807 0.002
      vertex 127 12.312154975561807 0
    endloop
  endfacet
  facet normal 1 0 0
    outer loop
      vertex 111.99199999999999 10.999125113364741 0
      vertex 111.99199999999999 29.00087488663526 0
      vertex 111.99199999999999 29.00087488663526 0.002
    endloop
  endfacet
  facet normal -0.08715574274765801 -0.9961946980917455 0
    outer loop
      vertex 111.99199999999999 29.00087488663526 0
      vertex 127 27.687845024438193 0.002
      vertex 111.99199999999999 29.00087488663526 0.002
    endloop
  endfacet
  facet normal -0.08715574274765801 -0.9961946980917455 -1.5736089533578418e-14
    outer loop
      vertex 111.99199999999999 29.00087488663526 0
      vertex 127 27.687845024438193 0
      vertex 127 27.687845024438193 0.002
    endloop
  endfacet
  facet normal -0.08597872126943175 0.9827412810341457 0.1637902135056906
    outer loop
      vertex 111.99199999999999 10.999125113364741 0.002
      vertex 127 11.312488308895142 6
      vertex 127 12.312154975561807 0.002
    endloop
  endfacet
  facet normal 1 0 0
    outer loop
      vertex 111.99199999999999 10.999125113364741 0.002
      vertex 111.99199999999999 29.00087488663526 0.002
      vertex 111.99199999999999 30.000541553301925 6
    endloop
  endfacet
  facet normal -0.08597872126943173 -0.9827412810341455 0.16379021350569087
    outer loop
      vertex 111.99199999999999 29.00087488663526 0.002
      vertex 127 27.687845024438193 0.002
      vertex 111.99199999999999 30.000541553301925 6
    endloop
  endfacet
  facet normal 1 0 0
    outer loop
      vertex 111.99199999999999 10.999125113364741 0.002
      vertex 111.99199999999999 30.000541553301925 6
      vertex 111.99199999999999 9.999458446698075 6
    endloop
  endfacet
  facet normal -0.08597872126943185 0.9827412810341455 0.16379021350569087
    outer loop
      vertex 111.99199999999999 10.999125113364741 0.002
      vertex 111.99199999999999 9.999458446698075 6
      vertex 127 11.312488308895142 6
    endloop
  endfacet
  facet normal -0.08597872126943173 -0.9827412810341455 0.16379021350569087
    outer loop
      vertex 127 27.687845024438193 0.002
      vertex 127 28.68751169110486 6
      vertex 111.99199999999999 30.000541553301925 6
    endloop
  endfacet
  facet normal 0.08715574274765732 0.9961946980917457 -1.29062431604467e-14
    outer loop
      vertex 60.00800000000001 142.99912511336476 0
      vertex 45 144.3121549755618 0
      vertex 45 144.3121549755618 0.002
    endloop
  endfacet
  facet normal 0.08715574274765732 0.9961946980917457 0
    outer loop
      vertex 60.00800000000001 142.99912511336476 0
      vertex 45 144.3121549755618 0.002
      vertex 60.00800000000001 142.99912511336476 0.002
    endloop
  endfacet
  facet normal -1 0 0
    outer loop
      vertex 60.00800000000001 161.00087488663524 0
      vertex 60.00800000000001 142.99912511336476 0
      vertex 60.00800000000001 142.99912511336476 0.002
    endloop
  endfacet
  facet normal 0.08715574274765732 -0.9961946980917457 1.29062431604467e-14
    outer loop
      vertex 60.00800000000001 161.00087488663524 0.002
      vertex 45 159.6878450244382 0.002
      vertex 45 159.6878450244382 0
    endloop
  endfacet
  facet normal 0.08715574274765732 -0.9961946980917457 0
    outer loop
      vertex 60.00800000000001 161.00087488663524 0
      vertex 60.00800000000001 161.00087488663524 0.002
      vertex 45 159.6878450244382 0
    endloop
  endfacet
  facet normal -1 0 0
    outer loop
      vertex 60.00800000000001 161.00087488663524 0
      vertex 60.00800000000001 142.99912511336476 0.002
      vertex 60.00800000000001 161.00087488663524 0.002
    endloop
  endfacet
  facet normal 0.08597872126943101 0.9827412810341453 0.1637902135056937
    outer loop
      vertex 60.00800000000001 142.99912511336476 0.002
      vertex 45 144.3121549755618 0.002
      vertex 60.00800000000001 141.99945844669807 6
    endloop
  endfacet
  facet normal -1 0 0
    outer loop
      vertex 60.00800000000001 161.00087488663524 0.002
      vertex 60.00800000000001 142.99912511336476 0.002
      vertex 60.00800000000001 141.99945844669807 6
    endloop
  endfacet
  facet normal 0.08597872126943107 -0.9827412810341459 0.16379021350568918
    outer loop
      vertex 60.00800000000001 161.00087488663524 0.002
      vertex 45 160.68751169110485 6
      vertex 45 159.6878450244382 0.002
    endloop
  endfacet
  facet normal 0.08597872126943101 0.9827412810341453 0.1637902135056937
    outer loop
      vertex 45 144.3121549755618 0.002
      vertex 45 143.31248830889513 6
      vertex 60.00800000000001 141.99945844669807 6
    endloop
  endfacet
  facet normal 0.08597872126943286 -0.982741281034145 0.1637902135056937
    outer loop
      vertex 60.00800000000001 161.00087488663524 0.002
      vertex 60.00800000000001 162.00054155330193 6
      vertex 45 160.68751169110485 6
    endloop
  endfacet
  facet normal -1 0 0
    outer loop
      vertex 60.00800000000001 161.00087488663524 0.002
      vertex 60.00800000000001 141.99945844669807 6
      vertex 60.00800000000001 162.00054155330193 6
    endloop
  endfacet
endsolid OpenSCAD_Model
