solid OpenSCAD_Model
  facet normal -0.707110097309449 0 0.7071034650480943
    outer loop
      vertex 113 12 1.6059991121292114
      vertex 113.39399719238281 113.39399719238281 2
      vertex 113 113 1.6059991121292114
    endloop
  endfacet
  facet normal -0.7071100973094491 0 0.7071034650480943
    outer loop
      vertex 113.39399719238281 113.39399719238281 2
      vertex 113 12 1.6059991121292114
      vertex 113.39399719238281 11.605999946594238 2
    endloop
  endfacet
  facet normal 0 0.7071075299871337 0.7071060323851684
    outer loop
      vertex 113 12 1.6059991121292114
      vertex 11.605999946594238 11.605999946594238 2
      vertex 113.39399719238281 11.605999946594238 2
    endloop
  endfacet
  facet normal 0 0.7071075299871337 0.7071060323851684
    outer loop
      vertex 11.605999946594238 11.605999946594238 2
      vertex 113 12 1.6059991121292114
      vertex 12 12 1.6059991121292114
    endloop
  endfacet
  facet normal 0.7071075299871337 0 0.7071060323851684
    outer loop
      vertex 11.605999946594238 113.39399719238281 2
      vertex 12 12 1.6059991121292114
      vertex 12 113 1.6059991121292114
    endloop
  endfacet
  facet normal 0.7071075299871337 0 0.7071060323851684
    outer loop
      vertex 12 12 1.6059991121292114
      vertex 11.605999946594238 113.39399719238281 2
      vertex 11.605999946594238 11.605999946594238 2
    endloop
  endfacet
  facet normal 0 -0.7071100973094491 0.7071034650480943
    outer loop
      vertex 12 113 1.6059991121292114
      vertex 113.39399719238281 113.39399719238281 2
      vertex 11.605999946594238 113.39399719238281 2
    endloop
  endfacet
  facet normal 0 -0.707110097309449 0.7071034650480943
    outer loop
      vertex 113.39399719238281 113.39399719238281 2
      vertex 12 113 1.6059991121292114
      vertex 113 113 1.6059991121292114
    endloop
  endfacet
  facet normal -0.7071052192167587 0 -0.7071083431528862
    outer loop
      vertex 113 12 0.3980008661746979
      vertex 113.39800262451172 113.39800262451172 0
      vertex 113.39800262451172 11.60200023651123 0
    endloop
  endfacet
  facet normal -0.7071052192167586 0 -0.7071083431528861
    outer loop
      vertex 113.39800262451172 113.39800262451172 0
      vertex 113 12 0.3980008661746979
      vertex 113 113 0.3980008661746979
    endloop
  endfacet
  facet normal 0.707107760728684 0 -0.7071058016430541
    outer loop
      vertex 12 12 0.3980008661746979
      vertex 11.60200023651123 113.39800262451172 0
      vertex 12 113 0.3980008661746979
    endloop
  endfacet
  facet normal 0.707107760728684 0 -0.7071058016430541
    outer loop
      vertex 11.60200023651123 113.39800262451172 0
      vertex 12 12 0.3980008661746979
      vertex 11.60200023651123 11.60200023651123 0
    endloop
  endfacet
  facet normal 0 0.707107760728684 -0.7071058016430541
    outer loop
      vertex 113.39800262451172 11.60200023651123 0
      vertex 12 12 0.3980008661746979
      vertex 113 12 0.3980008661746979
    endloop
  endfacet
  facet normal 0 0.707107760728684 -0.7071058016430541
    outer loop
      vertex 12 12 0.3980008661746979
      vertex 113.39800262451172 11.60200023651123 0
      vertex 11.60200023651123 11.60200023651123 0
    endloop
  endfacet
  facet normal 0 -0.7071052192167586 -0.7071083431528861
    outer loop
      vertex 12 113 0.3980008661746979
      vertex 113.39800262451172 113.39800262451172 0
      vertex 113 113 0.3980008661746979
    endloop
  endfacet
  facet normal 0 -0.7071052192167587 -0.7071083431528862
    outer loop
      vertex 113.39800262451172 113.39800262451172 0
      vertex 12 113 0.3980008661746979
      vertex 11.60200023651123 113.39800262451172 0
    endloop
  endfacet
  facet normal -1 0 0
    outer loop
      vertex 113 12 0.3980008661746979
      vertex 113 113 1.6059991121292114
      vertex 113 113 0.3980008661746979
    endloop
  endfacet
  facet normal -1 0 0
    outer loop
      vertex 113 113 1.6059991121292114
      vertex 113 12 0.3980008661746979
      vertex 113 12 1.6059991121292114
    endloop
  endfacet
  facet normal 1 0 0
    outer loop
      vertex 12 12 1.6059991121292114
      vertex 12 113 0.3980008661746979
      vertex 12 113 1.6059991121292114
    endloop
  endfacet
  facet normal 1 0 0
    outer loop
      vertex 12 113 0.3980008661746979
      vertex 12 12 1.6059991121292114
      vertex 12 12 0.3980008661746979
    endloop
  endfacet
  facet normal 0 -1 0
    outer loop
      vertex 12 113 0.3980008661746979
      vertex 113 113 1.6059991121292114
      vertex 12 113 1.6059991121292114
    endloop
  endfacet
  facet normal 0 -1 0
    outer loop
      vertex 113 113 1.6059991121292114
      vertex 12 113 0.3980008661746979
      vertex 113 113 0.3980008661746979
    endloop
  endfacet
  facet normal 0 1 0
    outer loop
      vertex 113 12 0.3980008661746979
      vertex 12 12 1.6059991121292114
      vertex 113 12 1.6059991121292114
    endloop
  endfacet
  facet normal 0 1 0
    outer loop
      vertex 12 12 1.6059991121292114
      vertex 113 12 0.3980008661746979
      vertex 12 12 0.3980008661746979
    endloop
  endfacet
  facet normal 0.707105095313009 0 -0.7071084670560667
    outer loop
      vertex 124.5999984741211 0.39999961853027344 0
      vertex 125 124.5999984741211 0.39999961853027344
      vertex 125 0.39999961853027344 0.39999961853027344
    endloop
  endfacet
  facet normal 0.707105095313009 0 -0.7071084670560667
    outer loop
      vertex 125 124.5999984741211 0.39999961853027344
      vertex 124.5999984741211 0.39999961853027344 0
      vertex 124.5999984741211 124.5999984741211 0
    endloop
  endfacet
  facet normal 0.7071059382512856 0 0.7071076241208047
    outer loop
      vertex 124.5999984741211 124.5999984741211 2
      vertex 125 0.39999961853027344 1.5999994277954102
      vertex 125 124.5999984741211 1.5999994277954102
    endloop
  endfacet
  facet normal 0.7071059382512856 0 0.7071076241208047
    outer loop
      vertex 125 0.39999961853027344 1.5999994277954102
      vertex 124.5999984741211 124.5999984741211 2
      vertex 124.5999984741211 0.39999961853027344 2
    endloop
  endfacet
  facet normal -0.7071084670560666 0.707105095313009 0
    outer loop
      vertex 0 124.5999984741211 0.39999961853027344
      vertex 0.39999961853027344 125 1.5999994277954102
      vertex 0.39999961853027344 125 0.39999961853027344
    endloop
  endfacet
  facet normal -0.7071084670560666 0.707105095313009 0
    outer loop
      vertex 0.39999961853027344 125 1.5999994277954102
      vertex 0 124.5999984741211 0.39999961853027344
      vertex 0 124.5999984741211 1.5999994277954102
    endloop
  endfacet
  facet normal 0 0.7071059382512856 0.7071076241208047
    outer loop
      vertex 0.39999961853027344 125 1.5999994277954102
      vertex 124.5999984741211 124.5999984741211 2
      vertex 124.5999984741211 125 1.5999994277954102
    endloop
  endfacet
  facet normal 0 0.7071059382512856 0.7071076241208047
    outer loop
      vertex 124.5999984741211 124.5999984741211 2
      vertex 0.39999961853027344 125 1.5999994277954102
      vertex 0.39999961853027344 124.5999984741211 2
    endloop
  endfacet
  facet normal -1 0 0
    outer loop
      vertex 0 0.39999961853027344 0.39999961853027344
      vertex 0 124.5999984741211 1.5999994277954102
      vertex 0 124.5999984741211 0.39999961853027344
    endloop
  endfacet
  facet normal -1 0 0
    outer loop
      vertex 0 124.5999984741211 1.5999994277954102
      vertex 0 0.39999961853027344 0.39999961853027344
      vertex 0 0.39999961853027344 1.5999994277954102
    endloop
  endfacet
  facet normal 0 -0.7071076241228142 0.7071059382492758
    outer loop
      vertex 0.39999961853027344 0 1.5999994277954102
      vertex 124.5999984741211 0.39999961853027344 2
      vertex 0.39999961853027344 0.39999961853027344 2
    endloop
  endfacet
  facet normal 0 -0.7071076241228142 0.7071059382492758
    outer loop
      vertex 124.5999984741211 0.39999961853027344 2
      vertex 0.39999961853027344 0 1.5999994277954102
      vertex 124.5999984741211 0 1.5999994277954102
    endloop
  endfacet
  facet normal -0.7071067811865476 -0.7071067811865476 0
    outer loop
      vertex 0.39999961853027344 0 0.39999961853027344
      vertex 0 0.39999961853027344 1.5999994277954102
      vertex 0 0.39999961853027344 0.39999961853027344
    endloop
  endfacet
  facet normal -0.7071067811865476 -0.7071067811865476 0
    outer loop
      vertex 0 0.39999961853027344 1.5999994277954102
      vertex 0.39999961853027344 0 0.39999961853027344
      vertex 0.39999961853027344 0 1.5999994277954102
    endloop
  endfacet
  facet normal 0.7071067811865476 0.7071067811865476 0
    outer loop
      vertex 125 124.5999984741211 1.5999994277954102
      vertex 124.5999984741211 125 0.39999961853027344
      vertex 124.5999984741211 125 1.5999994277954102
    endloop
  endfacet
  facet normal 0.7071067811865476 0.7071067811865476 0
    outer loop
      vertex 124.5999984741211 125 0.39999961853027344
      vertex 125 124.5999984741211 1.5999994277954102
      vertex 125 124.5999984741211 0.39999961853027344
    endloop
  endfacet
  facet normal 0 -1 0
    outer loop
      vertex 0.39999961853027344 0 0.39999961853027344
      vertex 124.5999984741211 0 1.5999994277954102
      vertex 0.39999961853027344 0 1.5999994277954102
    endloop
  endfacet
  facet normal 0 -1 0
    outer loop
      vertex 124.5999984741211 0 1.5999994277954102
      vertex 0.39999961853027344 0 0.39999961853027344
      vertex 124.5999984741211 0 0.39999961853027344
    endloop
  endfacet
  facet normal 0.5773493515152117 0.5773493515152117 -0.5773521045340779
    outer loop
      vertex 125 124.5999984741211 0.39999961853027344
      vertex 124.5999984741211 124.5999984741211 0
      vertex 124.5999984741211 125 0.39999961853027344
    endloop
  endfacet
  facet normal 1 0 0
    outer loop
      vertex 125 0.39999961853027344 1.5999994277954102
      vertex 125 124.5999984741211 0.39999961853027344
      vertex 125 124.5999984741211 1.5999994277954102
    endloop
  endfacet
  facet normal 1 0 0
    outer loop
      vertex 125 124.5999984741211 0.39999961853027344
      vertex 125 0.39999961853027344 1.5999994277954102
      vertex 125 0.39999961853027344 0.39999961853027344
    endloop
  endfacet
  facet normal -0.7071076241228142 0 0.7071059382492758
    outer loop
      vertex 0 0.39999961853027344 1.5999994277954102
      vertex 0.39999961853027344 124.5999984741211 2
      vertex 0 124.5999984741211 1.5999994277954102
    endloop
  endfacet
  facet normal -0.7071076241228142 0 0.7071059382492758
    outer loop
      vertex 0.39999961853027344 124.5999984741211 2
      vertex 0 0.39999961853027344 1.5999994277954102
      vertex 0.39999961853027344 0.39999961853027344 2
    endloop
  endfacet
  facet normal -0.5773507280257388 -0.5773507280257388 0.5773493515163057
    outer loop
      vertex 0.39999961853027344 0.39999961853027344 2
      vertex 0 0.39999961853027344 1.5999994277954102
      vertex 0.39999961853027344 0 1.5999994277954102
    endloop
  endfacet
  facet normal 0 -0.7071067811865475 -0.7071067811865475
    outer loop
      vertex 0.39999961853027344 0.39999961853027344 0
      vertex 124.5999984741211 0 0.39999961853027344
      vertex 0.39999961853027344 0 0.39999961853027344
    endloop
  endfacet
  facet normal 0 -0.7071067811865475 -0.7071067811865475
    outer loop
      vertex 124.5999984741211 0 0.39999961853027344
      vertex 0.39999961853027344 0.39999961853027344 0
      vertex 124.5999984741211 0.39999961853027344 0
    endloop
  endfacet
  facet normal -0.5773516456979649 0.5773488926812866 0.5773502691863439
    outer loop
      vertex 0.39999961853027344 125 1.5999994277954102
      vertex 0 124.5999984741211 1.5999994277954102
      vertex 0.39999961853027344 124.5999984741211 2
    endloop
  endfacet
  facet normal 0.5773484338451735 -0.5773511868596639 -0.5773511868596639
    outer loop
      vertex 125 0.39999961853027344 0.39999961853027344
      vertex 124.5999984741211 0 0.39999961853027344
      vertex 124.5999984741211 0.39999961853027344 0
    endloop
  endfacet
  facet normal -0.5773502691896258 -0.5773502691896258 -0.5773502691896258
    outer loop
      vertex 0.39999961853027344 0 0.39999961853027344
      vertex 0 0.39999961853027344 0.39999961853027344
      vertex 0.39999961853027344 0.39999961853027344 0
    endloop
  endfacet
  facet normal 0 0 1
    outer loop
      vertex 121.79999542236328 121.79999542236328 2
      vertex 113.39399719238281 113.39399719238281 2
      vertex 121.79999542236328 3.200000762939453 2
    endloop
  endfacet
  facet normal 0 0 1
    outer loop
      vertex 121.79999542236328 121.79999542236328 2
      vertex 11.605999946594238 113.39399719238281 2
      vertex 113.39399719238281 113.39399719238281 2
    endloop
  endfacet
  facet normal 0 0 1
    outer loop
      vertex 11.605999946594238 113.39399719238281 2
      vertex 3.200000762939453 121.79999542236328 2
      vertex 11.605999946594238 11.605999946594238 2
    endloop
  endfacet
  facet normal 0 0 1
    outer loop
      vertex 3.200000762939453 121.79999542236328 2
      vertex 11.605999946594238 113.39399719238281 2
      vertex 121.79999542236328 121.79999542236328 2
    endloop
  endfacet
  facet normal 0 0 1
    outer loop
      vertex 113.39399719238281 11.605999946594238 2
      vertex 121.79999542236328 3.200000762939453 2
      vertex 113.39399719238281 113.39399719238281 2
    endloop
  endfacet
  facet normal 0 0 1
    outer loop
      vertex 11.605999946594238 11.605999946594238 2
      vertex 121.79999542236328 3.200000762939453 2
      vertex 113.39399719238281 11.605999946594238 2
    endloop
  endfacet
  facet normal 0 0 1
    outer loop
      vertex 11.605999946594238 11.605999946594238 2
      vertex 3.200000762939453 3.200000762939453 2
      vertex 121.79999542236328 3.200000762939453 2
    endloop
  endfacet
  facet normal 0 0 1
    outer loop
      vertex 3.200000762939453 3.200000762939453 2
      vertex 11.605999946594238 11.605999946594238 2
      vertex 3.200000762939453 121.79999542236328 2
    endloop
  endfacet
  facet normal 0 0 1
    outer loop
      vertex 124.5999984741211 124.5999984741211 2
      vertex 123 123 2
      vertex 124.5999984741211 0.39999961853027344 2
    endloop
  endfacet
  facet normal 0 0 1
    outer loop
      vertex 124.5999984741211 124.5999984741211 2
      vertex 2 123 2
      vertex 123 123 2
    endloop
  endfacet
  facet normal 0 0 1
    outer loop
      vertex 2 123 2
      vertex 0.39999961853027344 124.5999984741211 2
      vertex 2 2 2
    endloop
  endfacet
  facet normal 0 0 1
    outer loop
      vertex 0.39999961853027344 124.5999984741211 2
      vertex 2 123 2
      vertex 124.5999984741211 124.5999984741211 2
    endloop
  endfacet
  facet normal 0 0 1
    outer loop
      vertex 123 2 2
      vertex 124.5999984741211 0.39999961853027344 2
      vertex 123 123 2
    endloop
  endfacet
  facet normal 0 0 1
    outer loop
      vertex 2 2 2
      vertex 124.5999984741211 0.39999961853027344 2
      vertex 123 2 2
    endloop
  endfacet
  facet normal 0 0 1
    outer loop
      vertex 2 2 2
      vertex 0.39999961853027344 0.39999961853027344 2
      vertex 124.5999984741211 0.39999961853027344 2
    endloop
  endfacet
  facet normal 0 0 1
    outer loop
      vertex 0.39999961853027344 0.39999961853027344 2
      vertex 2 2 2
      vertex 0.39999961853027344 124.5999984741211 2
    endloop
  endfacet
  facet normal 0 0.707105095313009 -0.7071084670560667
    outer loop
      vertex 0.39999961853027344 124.5999984741211 0
      vertex 124.5999984741211 125 0.39999961853027344
      vertex 124.5999984741211 124.5999984741211 0
    endloop
  endfacet
  facet normal 0 0.707105095313009 -0.7071084670560667
    outer loop
      vertex 124.5999984741211 125 0.39999961853027344
      vertex 0.39999961853027344 124.5999984741211 0
      vertex 0.39999961853027344 125 0.39999961853027344
    endloop
  endfacet
  facet normal 0.5773488926812866 -0.5773516456979649 0.5773502691863439
    outer loop
      vertex 124.5999984741211 0.39999961853027344 2
      vertex 124.5999984741211 0 1.5999994277954102
      vertex 125 0.39999961853027344 1.5999994277954102
    endloop
  endfacet
  facet normal 0.707105095313009 -0.7071084670560666 0
    outer loop
      vertex 124.5999984741211 0 0.39999961853027344
      vertex 125 0.39999961853027344 1.5999994277954102
      vertex 124.5999984741211 0 1.5999994277954102
    endloop
  endfacet
  facet normal 0.707105095313009 -0.7071084670560666 0
    outer loop
      vertex 125 0.39999961853027344 1.5999994277954102
      vertex 124.5999984741211 0 0.39999961853027344
      vertex 125 0.39999961853027344 0.39999961853027344
    endloop
  endfacet
  facet normal 0.5773498103535127 0.5773498103535127 0.5773511868607579
    outer loop
      vertex 124.5999984741211 125 1.5999994277954102
      vertex 124.5999984741211 124.5999984741211 2
      vertex 125 124.5999984741211 1.5999994277954102
    endloop
  endfacet
  facet normal -0.577351186859664 0.5773484338451736 -0.577351186859664
    outer loop
      vertex 0.39999961853027344 124.5999984741211 0
      vertex 0 124.5999984741211 0.39999961853027344
      vertex 0.39999961853027344 125 0.39999961853027344
    endloop
  endfacet
  facet normal 0 1 0
    outer loop
      vertex 124.5999984741211 125 0.39999961853027344
      vertex 0.39999961853027344 125 1.5999994277954102
      vertex 124.5999984741211 125 1.5999994277954102
    endloop
  endfacet
  facet normal 0 1 0
    outer loop
      vertex 0.39999961853027344 125 1.5999994277954102
      vertex 124.5999984741211 125 0.39999961853027344
      vertex 0.39999961853027344 125 0.39999961853027344
    endloop
  endfacet
  facet normal 0 0 -1
    outer loop
      vertex 124.5999984741211 0.39999961853027344 0
      vertex 113.39800262451172 11.60200023651123 0
      vertex 124.5999984741211 124.5999984741211 0
    endloop
  endfacet
  facet normal 0 0 -1
    outer loop
      vertex 124.5999984741211 0.39999961853027344 0
      vertex 11.60200023651123 11.60200023651123 0
      vertex 113.39800262451172 11.60200023651123 0
    endloop
  endfacet
  facet normal 0 0 -1
    outer loop
      vertex 11.60200023651123 11.60200023651123 0
      vertex 0.39999961853027344 0.39999961853027344 0
      vertex 11.60200023651123 113.39800262451172 0
    endloop
  endfacet
  facet normal 0 0 -1
    outer loop
      vertex 0.39999961853027344 0.39999961853027344 0
      vertex 11.60200023651123 11.60200023651123 0
      vertex 124.5999984741211 0.39999961853027344 0
    endloop
  endfacet
  facet normal 0 0 -1
    outer loop
      vertex 113.39800262451172 113.39800262451172 0
      vertex 124.5999984741211 124.5999984741211 0
      vertex 113.39800262451172 11.60200023651123 0
    endloop
  endfacet
  facet normal 0 0 -1
    outer loop
      vertex 11.60200023651123 113.39800262451172 0
      vertex 124.5999984741211 124.5999984741211 0
      vertex 113.39800262451172 113.39800262451172 0
    endloop
  endfacet
  facet normal 0 0 -1
    outer loop
      vertex 11.60200023651123 113.39800262451172 0
      vertex 0.39999961853027344 124.5999984741211 0
      vertex 124.5999984741211 124.5999984741211 0
    endloop
  endfacet
  facet normal 0 0 -1
    outer loop
      vertex 0.39999961853027344 124.5999984741211 0
      vertex 11.60200023651123 113.39800262451172 0
      vertex 0.39999961853027344 0.39999961853027344 0
    endloop
  endfacet
  facet normal -0.7071067811865475 0 -0.7071067811865475
    outer loop
      vertex 0.39999961853027344 0.39999961853027344 0
      vertex 0 124.5999984741211 0.39999961853027344
      vertex 0.39999961853027344 124.5999984741211 0
    endloop
  endfacet
  facet normal -0.7071067811865475 0 -0.7071067811865475
    outer loop
      vertex 0 124.5999984741211 0.39999961853027344
      vertex 0.39999961853027344 0.39999961853027344 0
      vertex 0 0.39999961853027344 0.39999961853027344
    endloop
  endfacet
  facet normal 0 1 0
    outer loop
      vertex 121.79999542236328 3.200000762939453 2
      vertex 3.200000762939453 3.200000762939453 3.601999282836914
      vertex 121.79999542236328 3.200000762939453 3.601999282836914
    endloop
  endfacet
  facet normal 0 1 0
    outer loop
      vertex 3.200000762939453 3.200000762939453 3.601999282836914
      vertex 121.79999542236328 3.200000762939453 2
      vertex 3.200000762939453 3.200000762939453 2
    endloop
  endfacet
  facet normal 1 0 0
    outer loop
      vertex 3.200000762939453 3.200000762939453 3.601999282836914
      vertex 3.200000762939453 121.79999542236328 2
      vertex 3.200000762939453 121.79999542236328 3.601999282836914
    endloop
  endfacet
  facet normal 1 0 0
    outer loop
      vertex 3.200000762939453 121.79999542236328 2
      vertex 3.200000762939453 3.200000762939453 3.601999282836914
      vertex 3.200000762939453 3.200000762939453 2
    endloop
  endfacet
  facet normal 0 -1 0
    outer loop
      vertex 3.200000762939453 121.79999542236328 2
      vertex 121.79999542236328 121.79999542236328 3.601999282836914
      vertex 3.200000762939453 121.79999542236328 3.601999282836914
    endloop
  endfacet
  facet normal 0 -1 0
    outer loop
      vertex 121.79999542236328 121.79999542236328 3.601999282836914
      vertex 3.200000762939453 121.79999542236328 2
      vertex 121.79999542236328 121.79999542236328 2
    endloop
  endfacet
  facet normal -1 0 0
    outer loop
      vertex 121.79999542236328 3.200000762939453 2
      vertex 121.79999542236328 121.79999542236328 3.601999282836914
      vertex 121.79999542236328 121.79999542236328 2
    endloop
  endfacet
  facet normal -1 0 0
    outer loop
      vertex 121.79999542236328 121.79999542236328 3.601999282836914
      vertex 121.79999542236328 3.200000762939453 2
      vertex 121.79999542236328 3.200000762939453 3.601999282836914
    endloop
  endfacet
  facet normal 0 0.7071067811865476 0.7071067811865476
    outer loop
      vertex 121.79999542236328 3.200000762939453 3.601999282836914
      vertex 2.8020009994506836 2.8020009994506836 3.9999990463256836
      vertex 122.197998046875 2.8020009994506836 3.9999990463256836
    endloop
  endfacet
  facet normal 0 0.7071067811865475 0.7071067811865475
    outer loop
      vertex 2.8020009994506836 2.8020009994506836 3.9999990463256836
      vertex 121.79999542236328 3.200000762939453 3.601999282836914
      vertex 3.200000762939453 3.200000762939453 3.601999282836914
    endloop
  endfacet
  facet normal 0.7071067811865475 0 0.7071067811865475
    outer loop
      vertex 2.8020009994506836 122.197998046875 3.9999990463256836
      vertex 3.200000762939453 3.200000762939453 3.601999282836914
      vertex 3.200000762939453 121.79999542236328 3.601999282836914
    endloop
  endfacet
  facet normal 0.7071067811865476 0 0.7071067811865476
    outer loop
      vertex 3.200000762939453 3.200000762939453 3.601999282836914
      vertex 2.8020009994506836 122.197998046875 3.9999990463256836
      vertex 2.8020009994506836 2.8020009994506836 3.9999990463256836
    endloop
  endfacet
  facet normal 0 -0.7071042396711015 0.7071093226928588
    outer loop
      vertex 122.197998046875 122.197998046875 3.9999990463256836
      vertex 3.200000762939453 121.79999542236328 3.601999282836914
      vertex 121.79999542236328 121.79999542236328 3.601999282836914
    endloop
  endfacet
  facet normal 0 -0.7071042396711014 0.7071093226928586
    outer loop
      vertex 3.200000762939453 121.79999542236328 3.601999282836914
      vertex 122.197998046875 122.197998046875 3.9999990463256836
      vertex 2.8020009994506836 122.197998046875 3.9999990463256836
    endloop
  endfacet
  facet normal -0.7071042396711014 0 0.7071093226928586
    outer loop
      vertex 121.79999542236328 121.79999542236328 3.601999282836914
      vertex 122.197998046875 2.8020009994506836 3.9999990463256836
      vertex 122.197998046875 122.197998046875 3.9999990463256836
    endloop
  endfacet
  facet normal -0.7071042396711015 0 0.7071093226928588
    outer loop
      vertex 122.197998046875 2.8020009994506836 3.9999990463256836
      vertex 121.79999542236328 121.79999542236328 3.601999282836914
      vertex 121.79999542236328 3.200000762939453 3.601999282836914
    endloop
  endfacet
  facet normal 0 1 0
    outer loop
      vertex 123 123 2
      vertex 2 123 2.0099992752075195
      vertex 123 123 2.0099992752075195
    endloop
  endfacet
  facet normal 0 1 0
    outer loop
      vertex 2 123 2.0099992752075195
      vertex 123 123 2
      vertex 2 123 2
    endloop
  endfacet
  facet normal 0 -1 0
    outer loop
      vertex 2 2 3.59999942779541
      vertex 123 2 2.0099992752075195
      vertex 123 2 3.59999942779541
    endloop
  endfacet
  facet normal 0 -1 0
    outer loop
      vertex 2 2 2
      vertex 123 2 2.0099992752075195
      vertex 2 2 3.59999942779541
    endloop
  endfacet
  facet normal 0 -1 0
    outer loop
      vertex 123 2 2.0099992752075195
      vertex 2 2 2
      vertex 123 2 2
    endloop
  endfacet
  facet normal -1 0 0
    outer loop
      vertex 2 2 2
      vertex 2 123 2.0099992752075195
      vertex 2 123 2
    endloop
  endfacet
  facet normal -1 0 0
    outer loop
      vertex 2 123 2.0099992752075195
      vertex 2 2 2
      vertex 2 123 3.59999942779541
    endloop
  endfacet
  facet normal -1 0 0
    outer loop
      vertex 2 123 3.59999942779541
      vertex 2 2 2
      vertex 2 2 3.59999942779541
    endloop
  endfacet
  facet normal 0 1 0
    outer loop
      vertex 123 123 2.0099992752075195
      vertex 2 123 3.59999942779541
      vertex 123 123 3.59999942779541
    endloop
  endfacet
  facet normal 0 1 0
    outer loop
      vertex 2 123 3.59999942779541
      vertex 123 123 2.0099992752075195
      vertex 2 123 2.0099992752075195
    endloop
  endfacet
  facet normal 0 0.707105095313009 0.7071084670560666
    outer loop
      vertex 123 123 3.59999942779541
      vertex 2.3999996185302734 122.5999984741211 3.9999990463256836
      vertex 122.5999984741211 122.5999984741211 3.9999990463256836
    endloop
  endfacet
  facet normal 0 0.7071050953130091 0.7071084670560667
    outer loop
      vertex 2.3999996185302734 122.5999984741211 3.9999990463256836
      vertex 123 123 3.59999942779541
      vertex 2 123 3.59999942779541
    endloop
  endfacet
  facet normal 1 0 0
    outer loop
      vertex 123 2 3.59999942779541
      vertex 123 123 2.0099992752075195
      vertex 123 123 3.59999942779541
    endloop
  endfacet
  facet normal 1 0 0
    outer loop
      vertex 123 123 2.0099992752075195
      vertex 123 2 3.59999942779541
      vertex 123 2 2.0099992752075195
    endloop
  endfacet
  facet normal 1 0 0
    outer loop
      vertex 123 2 2.0099992752075195
      vertex 123 123 2
      vertex 123 123 2.0099992752075195
    endloop
  endfacet
  facet normal 1 0 0
    outer loop
      vertex 123 123 2
      vertex 123 2 2.0099992752075195
      vertex 123 2 2
    endloop
  endfacet
  facet normal -0.7071067811865475 0 0.7071067811865475
    outer loop
      vertex 2 123 3.59999942779541
      vertex 2.3999996185302734 2.3999996185302734 3.9999990463256836
      vertex 2.3999996185302734 122.5999984741211 3.9999990463256836
    endloop
  endfacet
  facet normal -0.7071067811865476 0 0.7071067811865476
    outer loop
      vertex 2.3999996185302734 2.3999996185302734 3.9999990463256836
      vertex 2 123 3.59999942779541
      vertex 2 2 3.59999942779541
    endloop
  endfacet
  facet normal 0 -0.7071067811865475 0.7071067811865475
    outer loop
      vertex 2 2 3.59999942779541
      vertex 122.5999984741211 2.3999996185302734 3.9999990463256836
      vertex 2.3999996185302734 2.3999996185302734 3.9999990463256836
    endloop
  endfacet
  facet normal 0 -0.7071067811865476 0.7071067811865476
    outer loop
      vertex 122.5999984741211 2.3999996185302734 3.9999990463256836
      vertex 2 2 3.59999942779541
      vertex 123 2 3.59999942779541
    endloop
  endfacet
  facet normal 0.7071050953130091 0 0.7071084670560667
    outer loop
      vertex 122.5999984741211 122.5999984741211 3.9999990463256836
      vertex 123 2 3.59999942779541
      vertex 123 123 3.59999942779541
    endloop
  endfacet
  facet normal 0.707105095313009 0 0.7071084670560666
    outer loop
      vertex 123 2 3.59999942779541
      vertex 122.5999984741211 122.5999984741211 3.9999990463256836
      vertex 122.5999984741211 2.3999996185302734 3.9999990463256836
    endloop
  endfacet
  facet normal 0 0 1
    outer loop
      vertex 122.5999984741211 122.5999984741211 3.9999990463256836
      vertex 122.197998046875 122.197998046875 3.9999990463256836
      vertex 122.5999984741211 2.3999996185302734 3.9999990463256836
    endloop
  endfacet
  facet normal 0 0 1
    outer loop
      vertex 122.5999984741211 122.5999984741211 3.9999990463256836
      vertex 2.8020009994506836 122.197998046875 3.9999990463256836
      vertex 122.197998046875 122.197998046875 3.9999990463256836
    endloop
  endfacet
  facet normal 0 0 1
    outer loop
      vertex 2.8020009994506836 122.197998046875 3.9999990463256836
      vertex 2.3999996185302734 122.5999984741211 3.9999990463256836
      vertex 2.8020009994506836 2.8020009994506836 3.9999990463256836
    endloop
  endfacet
  facet normal 0 0 1
    outer loop
      vertex 2.3999996185302734 122.5999984741211 3.9999990463256836
      vertex 2.8020009994506836 122.197998046875 3.9999990463256836
      vertex 122.5999984741211 122.5999984741211 3.9999990463256836
    endloop
  endfacet
  facet normal 0 0 1
    outer loop
      vertex 122.197998046875 2.8020009994506836 3.9999990463256836
      vertex 122.5999984741211 2.3999996185302734 3.9999990463256836
      vertex 122.197998046875 122.197998046875 3.9999990463256836
    endloop
  endfacet
  facet normal 0 0 1
    outer loop
      vertex 2.8020009994506836 2.8020009994506836 3.9999990463256836
      vertex 122.5999984741211 2.3999996185302734 3.9999990463256836
      vertex 122.197998046875 2.8020009994506836 3.9999990463256836
    endloop
  endfacet
  facet normal 0 0 1
    outer loop
      vertex 2.8020009994506836 2.8020009994506836 3.9999990463256836
      vertex 2.3999996185302734 2.3999996185302734 3.9999990463256836
      vertex 122.5999984741211 2.3999996185302734 3.9999990463256836
    endloop
  endfacet
  facet normal 0 0 1
    outer loop
      vertex 2.3999996185302734 2.3999996185302734 3.9999990463256836
      vertex 2.8020009994506836 2.8020009994506836 3.9999990463256836
      vertex 2.3999996185302734 122.5999984741211 3.9999990463256836
    endloop
  endfacet
endsolid OpenSCAD_Model
